<?xml version="1.0" encoding="UTF-8" standalone="no"?>
<!DOCTYPE svg  PUBLIC '-//W3C//DTD SVG 1.1//EN'  'http://www.w3.org/Graphics/SVG/1.1/DTD/svg11.dtd'>
<svg version="1.1" xmlns="http://www.w3.org/2000/svg">
<defs>
<font id="ClarendonLTStd-Bold" horiz-adv-x="611">
<font-face unicode-range="U+0020-00FE" font-family="Clarendon LT Std" font-weight="700" underline-thickness="50" ascent="663" panose-1="2 4 8 4 5 5 5 2 2 4" underline-position="-150" bbox="-51 -250 980 940" cap-height="663" units-per-em="1000" descent="-337" x-height="468"/>
<missing-glyph/>
<glyph glyph-name="space" horiz-adv-x="305" unicode=" "/>
<glyph glyph-name="exclam" horiz-adv-x="333" unicode="!" d="M215 205h-97q0 65 -22.5 191t-22.5 155q0 132 96 132q91 0 91 -132q0 -29 -22.5 -155t-22.5 -191zM170 153q34 0 59 -25t25 -59t-25 -58.5t-59 -24.5t-58.5 24.5t-24.5 58.5t24.5 59t58.5 25z"/>
<glyph glyph-name="quotedbl" horiz-adv-x="333" unicode='&quot;' d="M128 602l-20 -204q-1 -9 -9 -20t-22 -11t-22 11t-9 20l-20 204q-6 81 51 81t51 -81zM307 602l-20 -204q-1 -9 -9 -20t-22 -11t-22 11t-9 20l-20 204q-6 81 51 81t51 -81z"/>
<glyph glyph-name="numbersign" unicode="#" d="M509 252l-4 -82h-75l-22 -170h-87l24 170h-79l-24 -170h-86l23 170h-73l4 82h81l15 100h-74l3 82h82l23 171h86l-23 -171h78l24 171h87l-24 -171h67l-4 -82h-74l-14 -100h66zM370 352h-78l-14 -100h79z"/>
<glyph glyph-name="dollar" unicode="$" d="M267 400v151q-85 0 -85 -80q0 -47 85 -71zM347 212v-158q36 3 63.5 24t27.5 58q0 30 -23.5 47t-67.5 29zM267 54v176q-67 14 -105 26.5t-72.5 34t-48.5 53.5t-14 80q0 65 36.5 111t89.5 65.5t114 19.5v87h80v-87q35 -2 71 -10.5t71.5 -24.5t58 -44t22.5 -63 q0 -39 -23 -58.5t-63 -19.5q-32 0 -54.5 20t-22.5 53q0 17 10.5 31.5t27.5 19.5q-39 27 -98 27v-171q39 -9 69.5 -18.5t65.5 -26t57.5 -36.5t38 -50.5t15.5 -67.5q0 -53 -23 -92t-61.5 -60t-78 -31t-83.5 -13v-110h-80v110q-47 0 -87.5 6.5t-78.5 22.5t-60.5 46.5 t-22.5 72.5q0 37 27 60t64 23q33 0 58 -18.5t25 -48.5q0 -53 -64 -61q32 -34 139 -34z"/>
<glyph glyph-name="percent" horiz-adv-x="833" unicode="%" d="M183 -15l414 635h60l-417 -635h-57zM630 307q-30 0 -43.5 -28t-13.5 -106t13.5 -105.5t43.5 -27.5t43.5 27.5t13.5 105.5t-13.5 106t-43.5 28zM203 565q-30 0 -43.5 -28t-13.5 -106t13.5 -105.5t43.5 -27.5t43.5 27.5t13.5 105.5t-13.5 106t-43.5 28zM630 362 q86 0 126 -51.5t40 -137.5t-40 -137t-126 -51t-126 51t-40 137t40 137.5t126 51.5zM203 620q86 0 126 -51.5t40 -137.5t-40 -137t-126 -51t-126 51t-40 137t40 137.5t126 51.5z"/>
<glyph glyph-name="ampersand" horiz-adv-x="889" unicode="&amp;" d="M253 309q-53 -34 -53 -105q0 -52 38.5 -88t90.5 -36q45 0 81 25q-9 9 -18.5 19t-17 18t-17.5 20.5t-15.5 19t-16 21.5t-14.5 20t-15.5 22t-14 20.5t-15 22.5t-13.5 21zM412 544q0 51 -54 51q-22 0 -34.5 -16t-12.5 -38q0 -13 12.5 -40t23.5 -39q32 14 48.5 32.5 t16.5 49.5zM750 231h90v-42q0 -209 -192 -209q-93 0 -168 55q-80 -55 -192 -55q-129 0 -190 62t-61 159q0 78 41 122t123 81q-32 45 -32 116q0 70 49.5 116.5t121.5 46.5q78 0 125 -41t47 -110q0 -49 -32 -91.5t-78 -65.5q13 -17 38.5 -53.5t47 -64t43.5 -48.5l20 24 q35 43 35 68t-38 25h-36v88h287v-88q-44 0 -62.5 -4t-27.5 -18l-115 -170q36 -49 85 -49q36 0 53.5 30t17.5 79v37z"/>
<glyph glyph-name="quotesingle" horiz-adv-x="222" unicode="&apos;" d="M162 602l-20 -204q-1 -9 -9 -20t-22 -11t-22 11t-9 20l-20 204q-6 81 51 81t51 -81z"/>
<glyph glyph-name="parenleft" horiz-adv-x="389" unicode="(" d="M363 683v-82q-86 -13 -124 -94t-38 -261q0 -174 39 -258t126 -97v-83q-113 0 -194 64.5t-118 161.5t-37 211q0 84 22 161t63.5 139.5t109 100t151.5 37.5z"/>
<glyph glyph-name="parenright" horiz-adv-x="389" unicode=")" d="M26 -192v82q86 13 124 94t38 261q0 174 -39 258t-126 97v83q113 0 194 -64.5t118 -161.5t37 -211q0 -84 -22 -161t-63.5 -139.5t-109 -100t-151.5 -37.5z"/>
<glyph glyph-name="asterisk" horiz-adv-x="500" unicode="*" d="M251 683q21 0 34 -12t13 -33q0 -16 -21.5 -64.5t-17.5 -73.5q32 21 59 55.5t35 40.5q13 10 31 10q19 0 32.5 -13t13.5 -38q0 -40 -68 -49q-9 -1 -26.5 -3t-28 -3t-22 -4.5t-18.5 -8.5q6 -6 18 -11t21.5 -6.5t28 -4.5t26.5 -5q23 -5 34.5 -8.5t22 -14t10.5 -26.5 q0 -20 -10.5 -33.5t-30.5 -13.5q-19 0 -33 9.5t-22.5 22.5t-28 35t-44.5 40q-4 -25 17.5 -73.5t21.5 -64.5q0 -21 -13 -33t-34 -12t-34 12t-13 33q0 15 21 64t16 74q-25 -18 -44.5 -40t-28 -35t-22.5 -22.5t-33 -9.5q-20 0 -30.5 13.5t-10.5 33.5q0 16 10.5 26.5t22 14 t34.5 8.5q8 2 26.5 5t28 4.5t21.5 6.5t18 11q-12 9 -41 13.5t-55 6t-46.5 13.5t-20.5 35q0 25 14.5 38t33.5 13q16 0 29 -10q8 -6 35 -40.5t59 -55.5q5 25 -16 74t-21 64q0 21 13 33t34 12z"/>
<glyph glyph-name="plus" horiz-adv-x="600" unicode="+" d="M244 289v179h111v-179h178v-111h-178v-178h-111v178h-178v111h178z"/>
<glyph glyph-name="comma" horiz-adv-x="305" unicode="," d="M71 -137v55q81 15 98 86q-37 -8 -41 -8q-30 0 -50 18.5t-20 48.5q0 40 22.5 65t61.5 25q49 0 76.5 -30t27.5 -79q0 -71 -51 -121.5t-124 -59.5z"/>
<glyph glyph-name="hyphen" horiz-adv-x="333" unicode="-" d="M297 164h-262v140h262v-140z"/>
<glyph glyph-name="period" horiz-adv-x="305" unicode="." d="M152 153q34 0 59 -25t25 -59t-25 -58.5t-59 -24.5t-58.5 24.5t-24.5 58.5t24.5 59t58.5 25z"/>
<glyph glyph-name="slash" horiz-adv-x="278" unicode="/" d="M-34 -20l235 703h111l-235 -703h-111z"/>
<glyph glyph-name="zero" unicode="0" d="M305 620q146 0 213.5 -87t67.5 -231t-67.5 -230.5t-213.5 -86.5t-213.5 86.5t-67.5 230.5t67.5 231t213.5 87zM208 302q0 -133 20.5 -185t76.5 -52t76.5 52t20.5 185t-20.5 185.5t-76.5 52.5t-76.5 -52.5t-20.5 -185.5z"/>
<glyph glyph-name="one" unicode="1" d="M269 605h130v-473q0 -48 44 -48h62v-84h-389v84h66q44 0 44 48v309h-108v84h25q92 0 126 80z"/>
<glyph glyph-name="two" unicode="2" d="M115 0h-87v42q0 59 25 104.5t62 71.5t81 51.5t81 45t62 50t25 68.5q0 51 -35 79t-87 28q-40 0 -76.5 -21.5t-45.5 -58.5q16 8 39 8q27 0 46.5 -22t19.5 -49q0 -32 -21 -56t-74 -24q-45 0 -73.5 29t-28.5 75q0 68 42.5 115t100.5 65.5t124 18.5q49 0 92.5 -11t80.5 -34 t58.5 -62.5t21.5 -90.5q0 -57 -24 -96.5t-61 -58t-84.5 -35t-91.5 -27.5t-84.5 -34t-61.5 -55l2 -2q54 38 128 38q28 0 83 -11q60 -12 80 -12q50 0 50 81h85v-49q0 -176 -175 -176q-49 0 -121 28t-101 28q-51 0 -57 -41z"/>
<glyph glyph-name="three" unicode="3" d="M243 277v80q56 0 87.5 18t31.5 69q0 49 -34 72.5t-86 23.5q-66 0 -102 -38q83 0 83 -67q0 -34 -27 -52.5t-63 -18.5q-39 0 -64 25t-25 65q0 45 22.5 79t60 52t77.5 26.5t82 8.5q43 0 84.5 -7t83 -23.5t67 -50t25.5 -79.5q0 -107 -133 -132v-2q74 -19 112.5 -52.5 t38.5 -103.5q0 -54 -20.5 -91.5t-59.5 -57.5t-85 -28t-106 -8q-54 0 -96 6.5t-82.5 23t-62.5 51t-22 84.5q0 49 26 75.5t74 26.5q35 0 59.5 -22t24.5 -57t-23 -53t-60 -18q12 -15 44.5 -26t54.5 -11q150 0 150 111q0 61 -35.5 81t-101.5 20z"/>
<glyph glyph-name="four" unicode="4" d="M126 267h182v192zM12 183v95l313 327h156v-338h98v-84h-98v-51q0 -48 44 -48h54v-84h-381v84h66q44 0 44 48v51h-296z"/>
<glyph glyph-name="five" unicode="5" d="M72 306l23 314q53 -8 105 -12q51 -3 104 -3q41 0 123 8q17 1 37 3t32 3t16 1q19 0 19 -18q0 -52 -82 -87.5t-183 -35.5q-55 0 -92 14l-3 -91q53 33 131 33q110 0 182.5 -57.5t72.5 -164.5q0 -111 -79 -169.5t-193 -58.5q-45 0 -86.5 8.5t-79.5 26.5t-61 53t-23 83 q0 41 27 69t68 28q39 0 64 -21t25 -59q0 -32 -22 -50t-56 -20q36 -38 89 -38q143 0 143 152q0 59 -28 94t-87 35q-57 0 -90 -40h-96z"/>
<glyph glyph-name="six" unicode="6" d="M311 290q-82 0 -82 -113q0 -112 82 -112t82 112q0 113 -82 113zM218 380v-55q40 27 71 36t82 9q88 0 147 -49t59 -134q0 -68 -37.5 -115t-93.5 -67t-123 -20q-144 0 -216.5 76.5t-72.5 214.5q0 160 77.5 252t235.5 92q71 0 138 -34t67 -93q0 -87 -99 -87q-32 0 -55 19 t-23 47q0 39 39 59q-23 15 -51 15q-73 0 -109 -46t-36 -120z"/>
<glyph glyph-name="seven" unicode="7" d="M134 605v-68h6q28 38 60.5 53.5t83.5 15.5q40 0 99 -19t83 -19q43 0 43 37h77v-18q0 -45 -21.5 -92.5t-52.5 -92t-62 -94.5t-52.5 -118.5t-21.5 -145.5v-44h-184v25q0 95 25.5 162t57.5 99.5t88.5 86t92.5 101.5l-2 2q-41 -24 -108 -24q-21 0 -69 8t-65 8q-34 0 -56 -30 t-22 -83v-29h-85v279h85z"/>
<glyph glyph-name="eight" unicode="8" d="M337 216l-115 42q-29 -10 -51 -38t-22 -53q0 -59 44.5 -83.5t109.5 -24.5q49 0 86 19.5t37 62.5q0 23 -18.5 39.5t-70.5 35.5zM366 388l26 16q37 22 37 65q0 42 -35 59.5t-82 17.5q-106 0 -106 -68q0 -35 37 -47zM312 620q32 0 62.5 -4t63 -14.5t56.5 -27t39.5 -43.5 t15.5 -62q0 -45 -27.5 -71.5t-75.5 -42.5q135 -53 135 -174q0 -55 -23 -94.5t-64 -61t-88.5 -31t-105.5 -9.5q-48 0 -89.5 6.5t-85.5 22.5t-70 51t-26 85q0 108 116 149q-41 20 -67.5 53.5t-26.5 75.5q0 192 261 192z"/>
<glyph glyph-name="nine" unicode="9" d="M299 540q-82 0 -82 -113q0 -112 82 -112t82 112q0 113 -82 113zM393 246v34q-40 -27 -71 -36t-82 -9q-93 0 -150 47.5t-57 135.5q0 68 38 115t94 67t123 20q142 0 215.5 -83t73.5 -208q0 -158 -79.5 -251t-231.5 -93h-1q-33 0 -66.5 6t-66 19.5t-53 40t-20.5 61.5 q0 44 24.5 65.5t62.5 21.5q40 0 65 -19t25 -47q0 -39 -39 -59q23 -15 51 -15q145 0 145 187z"/>
<glyph glyph-name="colon" horiz-adv-x="305" unicode=":" d="M152 153q34 0 59 -25t25 -59t-25 -58.5t-59 -24.5t-58.5 24.5t-24.5 58.5t24.5 59t58.5 25zM152 443q34 0 59 -25t25 -59t-25 -58.5t-59 -24.5t-58.5 24.5t-24.5 58.5t24.5 59t58.5 25z"/>
<glyph glyph-name="semicolon" horiz-adv-x="305" unicode=";" d="M71 -137v55q81 15 98 86q-37 -8 -41 -8q-30 0 -50 18.5t-20 48.5q0 40 22.5 65t61.5 25q49 0 76.5 -30t27.5 -79q0 -71 -51 -121.5t-124 -59.5zM155 443q34 0 59 -25t25 -59t-25 -58.5t-59 -24.5t-58.5 24.5t-24.5 58.5t24.5 59t58.5 25z"/>
<glyph glyph-name="less" horiz-adv-x="600" unicode="&lt;" d="M554 88v-115l-508 214v94l508 214v-115l-352 -146z"/>
<glyph glyph-name="equal" horiz-adv-x="600" unicode="=" d="M533 388v-111h-467v111h467zM533 191v-111h-467v111h467z"/>
<glyph glyph-name="greater" horiz-adv-x="600" unicode="&gt;" d="M46 88l352 146l-352 146v115l508 -214v-94l-508 -214v115z"/>
<glyph glyph-name="question" horiz-adv-x="556" unicode="?" d="M301 207h-99q2 49 9 71q10 31 41 67.5t54 73.5t23 80q0 42 -32 65.5t-75 23.5q-42 0 -71.5 -21.5t-36.5 -61.5q22 11 44 11q31 0 50.5 -21.5t19.5 -52.5q0 -39 -24 -59.5t-63 -20.5q-50 0 -76.5 35t-26.5 87q0 90 68.5 144.5t160.5 54.5q39 0 79 -10.5t77.5 -31.5t61 -58 t23.5 -85q0 -88 -98 -160q-8 -6 -29.5 -20t-31 -22t-22.5 -22t-19 -30t-7 -37zM251 153q34 0 59 -25t25 -59t-25 -58.5t-59 -24.5t-58.5 24.5t-24.5 58.5t24.5 59t58.5 25z"/>
<glyph glyph-name="at" horiz-adv-x="800" unicode="@" d="M500 390q0 33 -8.5 49t-29.5 16q-36 0 -73.5 -50t-37.5 -116q0 -37 12.5 -61t28.5 -24q39 0 68.5 46t39.5 140zM524 469l10 33h78l-59 -240q-2 -7 -2 -23q0 -20 7.5 -34.5t21.5 -14.5q31 0 62 64.5t31 127.5q0 88 -71 155.5t-184 67.5q-41 0 -82.5 -15t-79.5 -45 t-61.5 -83.5t-23.5 -121.5q0 -128 78 -205t179 -77q112 0 202 48l10 -62q-110 -64 -211 -64q-96 0 -171.5 31t-120.5 83t-68 113.5t-23 128.5q0 147 109.5 247t262.5 100q142 0 238.5 -85.5t96.5 -214.5q0 -87 -52.5 -165t-136.5 -78q-44 0 -68.5 27.5t-23.5 46.5h-2 q-7 -18 -42 -45.5t-75 -27.5q-37 0 -67.5 30t-30.5 94q0 36 12.5 78t36 82t63.5 66.5t89 26.5q10 0 18 -1t14.5 -4.5t10.5 -6t8 -8.5t6 -8.5t6 -10.5z"/>
<glyph glyph-name="A" horiz-adv-x="778" unicode="A" d="M282 663h200l167 -500q15 -45 29 -60t40 -15h34v-88h-365v88h30q55 0 55 15q0 17 -5 36l-21 72h-204l-12 -40q-15 -48 -15 -64q0 -19 62 -19h29v-88h-294v88h34q26 0 40 15t29 60zM342 514l-71 -215h145l-72 215h-2z"/>
<glyph glyph-name="B" horiz-adv-x="722" unicode="B" d="M109 128v407q0 40 -39 40h-57v88h431q104 0 158 -42.5t54 -112.5q0 -63 -39 -102.5t-104 -54.5v-2q36 -11 52 -16.5t45 -20t42 -30t24.5 -42.5t11.5 -62q0 -96 -62 -137t-208 -41h-404v88h56q39 0 39 40zM297 300v-212h67q60 0 93.5 23t33.5 83t-33.5 83t-93.5 23h-67z M297 575v-187h55q116 0 116 94q0 51 -30 72t-86 21h-55z"/>
<glyph glyph-name="C" horiz-adv-x="722" unicode="C" d="M566 616l20 56h90v-272h-93q0 82 -44 136t-125 54q-171 0 -171 -258q0 -128 40 -193.5t139 -65.5q75 0 118 53t43 127h93q-2 -136 -79 -204.5t-218 -68.5q-160 0 -256.5 90.5t-96.5 261.5q0 157 96 254t244 97q43 0 106.5 -19t93.5 -48z"/>
<glyph glyph-name="D" horiz-adv-x="778" unicode="D" d="M110 128v407q0 40 -39 40h-60v88h363q177 0 275.5 -82.5t98.5 -254.5q0 -166 -98.5 -246t-281.5 -80h-356v88h59q39 0 39 40zM298 575v-487h46q104 0 148 50.5t44 193.5t-44 193t-148 50h-46z"/>
<glyph glyph-name="E" horiz-adv-x="722" unicode="E" d="M118 128v407q0 40 -39 40h-62v88h665v-254h-93q0 103 -40.5 134.5t-143.5 31.5h-99v-191h31q43 0 61 19t18 66v22h83v-302h-83v24q0 32 -12.5 57.5t-37.5 25.5h-60v-208h122q43 0 70 6t49.5 25t32 56t9.5 96h93v-271h-664v88h61q39 0 39 40z"/>
<glyph glyph-name="F" horiz-adv-x="722" unicode="F" d="M410 0h-389v88h61q39 0 39 40v407q0 40 -39 40h-62v88h665v-254h-93q0 103 -40.5 134.5t-143.5 31.5h-99v-191h31q79 0 79 68v39h83v-302h-83v39q0 68 -79 68h-31v-168q0 -40 39 -40h62v-88z"/>
<glyph glyph-name="G" horiz-adv-x="778" unicode="G" d="M771 350v-88h-46q-39 0 -39 -40v-230h-87l-22 49q-79 -61 -197 -61q-160 0 -257 89t-97 253q0 168 96.5 264.5t257.5 96.5q110 0 180 -67l20 56h90v-272h-93q-2 78 -46 134t-117 56q-171 0 -171 -259q0 -130 42 -193t129 -63q34 0 59 15t25 47v85q0 40 -39 40h-52v88h364 z"/>
<glyph glyph-name="H" horiz-adv-x="833" unicode="H" d="M306 388h220v157q0 30 -39 30h-42v88h370v-88h-62q-39 0 -39 -40v-410q0 -37 39 -37h61v-88h-368v88h41q20 0 29.5 7t9.5 26v179h-220v-177q0 -35 39 -35h41v-88h-368v88h61q39 0 39 40v420q0 27 -39 27h-62v88h370v-88h-42q-20 0 -29.5 -9.5t-9.5 -33.5v-144z"/>
<glyph glyph-name="I" horiz-adv-x="444" unicode="I" d="M417 663v-88h-62q-21 0 -30 -7.5t-9 -32.5v-407q0 -40 39 -40h61v-88h-388v88h61q39 0 39 40v421q0 26 -39 26h-62v88h390z"/>
<glyph glyph-name="J" unicode="J" d="M197 663h390v-88h-62q-39 0 -39 -25v-342q0 -228 -233 -228q-110 0 -181 46t-71 138q0 53 28 89t79 36q42 0 70 -23.5t28 -64.5q0 -40 -22.5 -61t-52.5 -21q-27 0 -41 11h-2q20 -57 105 -57q105 0 105 135v339q0 28 -39 28h-62v88z"/>
<glyph glyph-name="K" horiz-adv-x="833" unicode="K" d="M440 663h352v-88q-50 0 -72.5 -4.5t-40.5 -20.5l-148 -130l168 -274q21 -35 38 -46.5t38 -11.5h35v-88h-372v88h36q39 0 39 11q0 12 -18 40l-99 161l-103 -87v-85q0 -40 39 -40h51v-88h-368v88h51q39 0 39 40v407q0 40 -39 40h-52v88h370v-88h-52q-39 0 -39 -40v-188 l122 106q12 10 33 28t32 27.5t24 21t18.5 17.5t5.5 9q0 19 -49 19h-39v88z"/>
<glyph glyph-name="L" horiz-adv-x="667" unicode="L" d="M642 0h-629v88h61q39 0 39 40v407q0 40 -39 40h-62v88h390v-88h-62q-39 0 -39 -40v-447h109q83 0 111 46.5t28 138.5h93v-273z"/>
<glyph glyph-name="M" horiz-adv-x="1000" unicode="M" d="M19 663h362l115 -407h2l118 407h356v-88h-55q-39 0 -39 -40v-407q0 -40 39 -40h55v-88h-363v88h42q39 0 39 40v422h-2l-157 -550h-146l-156 560h-2v-432q0 -40 39 -40h42v-88h-289v88h60q39 0 39 40v407q0 40 -39 40h-60v88z"/>
<glyph glyph-name="N" horiz-adv-x="833" unicode="N" d="M343 663l259 -457h2v329q0 40 -39 40h-61v88h308v-88h-60q-39 0 -39 -40v-535h-202l-278 493h-2v-365q0 -40 39 -40h61v-88h-309v88h61q39 0 39 40v407q0 40 -39 40h-62v88h322z"/>
<glyph glyph-name="O" horiz-adv-x="778" unicode="O" d="M389 590q-75 0 -110.5 -63.5t-35.5 -195.5t35.5 -195t110.5 -63t110.5 63t35.5 195t-35.5 195.5t-110.5 63.5zM389 683q166 0 264.5 -95t98.5 -257t-98.5 -256.5t-264.5 -94.5t-264.5 94.5t-98.5 256.5t98.5 257t264.5 95z"/>
<glyph glyph-name="P" horiz-adv-x="722" unicode="P" d="M118 128v407q0 40 -39 40h-62v88h419q128 0 194.5 -44.5t66.5 -143.5q0 -100 -69.5 -144.5t-211.5 -44.5h-110v-158q0 -40 39 -40h67v-88h-394v88h61q39 0 39 40zM306 575v-201h86q53 0 85 27t32 73q0 45 -29 73t-72 28h-102z"/>
<glyph glyph-name="Q" horiz-adv-x="833" unicode="Q" d="M398 313q68 0 146 -68q6 37 6 86q0 132 -35.5 195.5t-110.5 63.5t-110.5 -63.5t-35.5 -195.5q0 -73 11 -125h2q15 107 127 107zM304 141q0 -35 32 -51.5t71 -16.5q62 0 94 41q-74 85 -134 85q-28 0 -45.5 -15t-17.5 -43zM783 170h55q0 -69 -10 -114.5t-30 -67t-41.5 -29 t-53.5 -7.5q-61 0 -116 67q-78 -39 -183 -39q-166 0 -264.5 94.5t-98.5 256.5t98.5 257t264.5 95t264.5 -95t98.5 -257q0 -132 -69 -222q22 -22 42 -22q43 0 43 83z"/>
<glyph glyph-name="R" horiz-adv-x="833" unicode="R" d="M306 575v-187h96q59 0 85 19.5t26 76.5q0 53 -31 72t-104 19h-72zM118 128v407q0 40 -39 40h-62v88h461q106 0 164.5 -41.5t58.5 -120.5q0 -129 -151 -150v-2q62 -17 89.5 -43t27.5 -84v-105q0 -34 34 -34q33 0 33 62v40h67v-34q0 -81 -36.5 -126t-126.5 -45 q-159 0 -159 164v82q0 46 -16 60t-75 14h-82v-172q0 -40 39 -40h62v-88h-389v88h61q39 0 39 40z"/>
<glyph glyph-name="S" horiz-adv-x="667" unicode="S" d="M606 672v-246h-92q-11 75 -68.5 119.5t-127.5 44.5q-112 0 -112 -86q0 -25 24 -41.5t62 -25.5t84 -17.5t92.5 -23.5t84.5 -37.5t62 -64.5t24 -100q0 -76 -41.5 -126t-101 -69t-133.5 -19q-133 0 -218 62l-26 -53h-84v262h93q10 -79 70 -128.5t148 -49.5q44 0 79.5 23 t35.5 63q0 29 -24 47t-62 28t-84 18t-92.5 22t-84.5 36t-62 63.5t-24 99.5q0 48 17 85t44 60t65.5 38t77.5 21t83 6q98 0 190 -58l18 47h83z"/>
<glyph glyph-name="T" horiz-adv-x="722" unicode="T" d="M122 409h-93v254h664v-254h-93q0 83 -31.5 124.5t-113.5 41.5v-447q0 -40 39 -40h60v-88h-388v88h62q39 0 39 40v447q-82 0 -113.5 -41.5t-31.5 -124.5z"/>
<glyph glyph-name="U" horiz-adv-x="778" unicode="U" d="M15 575v88h390v-88h-62q-39 0 -39 -40v-353q0 -50 29 -79.5t87 -29.5q83 0 109.5 38t26.5 137v287q0 40 -39 40h-59v88h305v-88h-59q-39 0 -39 -40v-321q0 -234 -265 -234q-139 0 -211.5 51.5t-72.5 172.5v331q0 40 -39 40h-62z"/>
<glyph glyph-name="V" horiz-adv-x="778" unicode="V" d="M23 663h377v-88h-64q-31 0 -31 -21q0 -12 16 -63l105 -328h2l106 328q16 50 15 63q1 10 -7 15.5t-23 5.5h-57v88h292v-88h-24q-33 0 -48.5 -12.5t-28.5 -49.5l-173 -513h-178l-174 513q-13 38 -29.5 50t-54.5 12h-21v88z"/>
<glyph glyph-name="W" horiz-adv-x="1000" unicode="W" d="M19 575v88h303v-88h-27q-30 0 -30 -25q0 -3 13 -55l91 -339h2l88 307l-18 59q-16 53 -52 53h-21v88h318v-88h-45q-30 0 -30 -25q0 -3 13 -55l85 -328h2l83 328q11 44 11 58q0 10 -8.5 16t-17.5 6h-45v88h246v-88h-12q-25 0 -42 -15t-28 -57l-130 -503h-185l-76 279h-2 l-80 -279h-186l-133 471q-16 58 -33 81t-41 23h-13z"/>
<glyph glyph-name="X" horiz-adv-x="778" unicode="X" d="M327 0h-308v88q47 0 71.5 9t54.5 46l139 172l-163 226q-11 16 -27.5 24t-28 9t-32.5 1v88h354v-88h-39q-22 0 -22 -14q0 -11 10 -26l72 -104l82 104q10 11 10 26q0 14 -22 14h-37v88h287v-88h-28q-41 0 -76 -42l-138 -171l173 -237q27 -37 72 -37h27v-88h-371v88h48 q24 0 24 13q0 12 -15 32l-83 115l-91 -115q-15 -19 -15 -32t24 -13h48v-88z"/>
<glyph glyph-name="Y" horiz-adv-x="778" unicode="Y" d="M23 663h381v-88h-41q-31 0 -31 -16q0 -10 15 -34l88 -137l89 137q15 24 15 34q0 16 -31 16h-41v88h288v-88h-21q-51 0 -69 -27l-178 -281v-139q0 -40 39 -40h68v-88h-400v88h66q39 0 39 40v139l-158 252q-21 33 -39.5 44.5t-57.5 11.5h-21v88z"/>
<glyph glyph-name="Z" horiz-adv-x="667" unicode="Z" d="M29 0v91l385 484h-107q-101 0 -137.5 -36.5t-36.5 -128.5h-93v253h591v-90l-385 -485h116q101 0 137.5 40t36.5 143h93v-271h-600z"/>
<glyph glyph-name="bracketleft" horiz-adv-x="389" unicode="[" d="M354 -174h-298v837h298v-84h-125v-669h125v-84z"/>
<glyph glyph-name="backslash" horiz-adv-x="278" unicode="\" d="M77 683l235 -703h-111l-235 703h111z"/>
<glyph glyph-name="bracketright" horiz-adv-x="389" unicode="]" d="M35 -174v84h125v669h-125v84h298v-837h-298z"/>
<glyph glyph-name="asciicircum" horiz-adv-x="600" unicode="^" d="M189 240h-116l174 365h106l174 -365h-117l-110 248z"/>
<glyph glyph-name="underscore" horiz-adv-x="500" unicode="_" d="M0 -75h500v-50h-500v50z"/>
<glyph glyph-name="grave" horiz-adv-x="333" unicode="`" d="M251 543h-72l-118 69q-22 13 -31.5 19.5t-19.5 21.5t-10 34q0 23 17.5 38t40.5 15q13 0 25.5 -4t20 -8t18.5 -15.5t14.5 -16t15.5 -21t14 -18.5z"/>
<glyph glyph-name="a" unicode="a" d="M324 163v68q-13 -7 -51.5 -21.5t-58 -30.5t-19.5 -44q0 -56 57 -56q72 0 72 84zM542 171h55v-55q0 -75 -32.5 -103t-116.5 -28q-38 0 -69 18.5t-42 52.5q-59 -71 -154 -71q-154 0 -154 139q0 44 22 72t55 37.5t71.5 17t71.5 12.5t55 22.5t22 47.5q0 88 -97 88 q-49 0 -79 -19v-2q26 -3 44.5 -17t18.5 -38q0 -31 -23 -47t-56 -16q-37 0 -62 20t-25 54q0 39 24 66t63 39.5t73.5 17t71.5 4.5q110 0 160.5 -37t50.5 -141v-186q0 -23 3.5 -31.5t15.5 -8.5q18 0 25.5 14.5t7.5 54.5v23z"/>
<glyph glyph-name="b" unicode="b" d="M62 0v540q0 22 -7.5 32.5t-28.5 10.5h-46v80h248v-249q61 69 129 69q72 0 119.5 -35.5t67 -89.5t19.5 -124t-19.5 -124t-67 -89.5t-119.5 -35.5q-105 0 -154 77l-29 -62h-112zM307 397q-79 0 -79 -163t79 -163t79 163t-79 163z"/>
<glyph glyph-name="c" horiz-adv-x="500" unicode="c" d="M378 162h99q-3 -91 -59.5 -134t-147.5 -43q-115 0 -181.5 63.5t-66.5 185.5q0 119 72.5 184t175.5 65q87 0 147 -42t60 -120q0 -41 -24 -69.5t-65 -28.5q-39 0 -63.5 18t-24.5 55q0 34 21.5 53.5t55.5 19.5q-28 34 -80 34q-41 0 -69.5 -42.5t-28.5 -123.5 q0 -87 23 -126.5t75 -39.5q36 0 56.5 26t24.5 65z"/>
<glyph glyph-name="d" unicode="d" d="M276 78q79 0 79 160q0 159 -79 159t-79 -159q0 -160 79 -160zM363 0v73h-2q-42 -88 -145 -88q-44 0 -78.5 14.5t-56 38t-36 56.5t-20 67t-5.5 73t5.5 73t20 67t36 56.5t56 38t78.5 14.5q47 0 84.5 -17.5t52.5 -49.5l2 2v139q0 22 -7.5 32.5t-28.5 10.5h-41v80h243v-557 q0 -22 7.5 -32.5t28.5 -10.5h39v-80h-233z"/>
<glyph glyph-name="e" horiz-adv-x="556" unicode="e" d="M531 211h-330q0 -140 100 -140q31 0 63 23t38 63h116q-11 -84 -81.5 -128t-159.5 -44q-126 0 -189.5 65.5t-63.5 183.5q0 114 71.5 181.5t181.5 67.5q119 0 186.5 -76t67.5 -196zM203 291h151v26q0 39 -20 62.5t-55 23.5q-36 0 -56 -23.5t-20 -62.5v-26z"/>
<glyph glyph-name="f" horiz-adv-x="389" unicode="f" d="M18 456h74v24q0 106 46 154.5t143 48.5q64 0 114.5 -26.5t50.5 -83.5q0 -29 -20.5 -53t-48.5 -24q-29 0 -49.5 18.5t-20.5 47.5q0 19 11 32.5t29 15.5v2q-30 5 -37 5q-32 0 -42 -22t-10 -60v-79h84v-80h-84v-253q0 -22 7.5 -32.5t28.5 -10.5h41v-80h-322v80h43 q21 0 28.5 10.5t7.5 32.5v253h-74v80z"/>
<glyph glyph-name="g" horiz-adv-x="667" unicode="g" d="M283 422q-58 0 -58 -125q0 -124 58 -124t58 124q0 125 -58 125zM203 63h203q175 0 175 -125q0 -36 -16 -63.5t-41.5 -43.5t-64.5 -26t-79 -13.5t-91 -3.5q-252 0 -252 98q0 32 24.5 50.5t59.5 24.5v2q-31 11 -53.5 35t-22.5 55q0 42 20.5 63t65.5 39q-68 48 -68 152 q0 84 67 130t155 46q75 0 152 -45q52 45 110 45q44 0 76.5 -25.5t32.5 -68.5q0 -34 -19.5 -53t-54.5 -19q-24 0 -39.5 16.5t-15.5 40.5q0 27 28 50q-2 0 -11 2l-13.5 3t-13.5 0.5t-15.5 -3t-15.5 -8.5t-17 -15q35 -58 35 -103q0 -93 -65 -141t-165 -48q-60 0 -102 17 q-20 -6 -20 -29q0 -17 17.5 -26.5t33.5 -9.5zM161 -104q0 -41 151 -41t151 41q0 24 -39 32.5t-112 8.5t-112 -8.5t-39 -32.5z"/>
<glyph glyph-name="h" horiz-adv-x="667" unicode="h" d="M16 663h235v-272h2q34 49 73 70.5t99 21.5q82 0 117 -43.5t35 -126.5v-190q0 -22 7.5 -32.5t28.5 -10.5h38v-80h-297v80h21q21 0 28.5 10.5t7.5 32.5v172q0 50 -15 74t-62 24q-33 0 -54 -26t-21 -59v-185q0 -22 7.5 -32.5t28.5 -10.5h24v-80h-302v80h40q21 0 28.5 10.5 t7.5 32.5v417q0 22 -7.5 32.5t-28.5 10.5h-41v80z"/>
<glyph glyph-name="i" horiz-adv-x="389" unicode="i" d="M278 468v-345q0 -22 7.5 -32.5t28.5 -10.5h41v-80h-322v80h43q21 0 28.5 10.5t7.5 32.5v222q0 22 -7.5 32.5t-28.5 10.5h-46v80h248zM191 683q37 0 62 -25t25 -62t-25 -62t-62 -25t-62 25t-25 62t25 62t62 25z"/>
<glyph glyph-name="j" horiz-adv-x="389" unicode="j" d="M134 -101v446q0 22 -7.5 32.5t-28.5 10.5h-46v80h248v-507q0 -173 -195 -173q-38 0 -70.5 8.5t-59 33.5t-26.5 63q0 33 19 53t52 20q30 0 49.5 -15t19.5 -44q0 -33 -32 -50q20 -9 46 -9q31 0 31 51zM213 683q37 0 62 -25t25 -62t-25 -62t-62 -25t-62 25t-25 62t25 62 t62 25z"/>
<glyph glyph-name="k" horiz-adv-x="667" unicode="k" d="M90 123v417q0 22 -7.5 32.5t-28.5 10.5h-36v80h238v-411l125 100q16 12 16 25q0 11 -22 11h-50v80h292v-80h-26q-32 0 -52 -16l-85 -68l123 -198q16 -26 47 -26h25v-80h-303v80h28q20 0 20 13q0 9 -8 22l-54 90l-76 -64v-18q0 -26 7 -34.5t29 -8.5h16v-80h-291v80h37 q21 0 28.5 10.5t7.5 32.5z"/>
<glyph glyph-name="l" horiz-adv-x="389" unicode="l" d="M278 663v-540q0 -22 7.5 -32.5t28.5 -10.5h41v-80h-322v80h43q21 0 28.5 10.5t7.5 32.5v417q0 22 -7.5 32.5t-28.5 10.5h-46v80h248z"/>
<glyph glyph-name="m" horiz-adv-x="944" unicode="m" d="M17 468h232v-80h2q57 95 164 95q102 0 136 -89q57 89 158 89q152 0 152 -147v-213q0 -22 7.5 -32.5t28.5 -10.5h34v-80h-287v80h15q21 0 28.5 10.5t7.5 32.5v184q0 32 -16 59t-47 27q-72 0 -72 -75v-215q0 -14 6.5 -18.5t29.5 -4.5h13v-80h-265v80h14q21 0 28.5 9.5 t7.5 33.5v184q0 44 -12 65t-51 21q-38 0 -55 -25.5t-17 -64.5v-200q0 -23 36 -23h16v-80h-297v80h43q21 0 28.5 10.5t7.5 32.5v222q0 22 -7.5 32.5t-28.5 10.5h-40v80z"/>
<glyph glyph-name="n" horiz-adv-x="667" unicode="n" d="M16 468h235v-77h2q34 49 73 70.5t99 21.5q82 0 117 -43.5t35 -126.5v-190q0 -22 7.5 -32.5t28.5 -10.5h38v-80h-297v80h21q21 0 28.5 10.5t7.5 32.5v172q0 50 -15 74t-62 24q-33 0 -54 -26t-21 -59v-185q0 -22 7.5 -32.5t28.5 -10.5h24v-80h-302v80h40q21 0 28.5 10.5 t7.5 32.5v222q0 22 -7.5 32.5t-28.5 10.5h-41v80z"/>
<glyph glyph-name="o" horiz-adv-x="556" unicode="o" d="M278 483q115 0 186.5 -66t71.5 -183t-71.5 -183t-186.5 -66t-186.5 66t-71.5 183t71.5 183t186.5 66zM278 403q-44 0 -62.5 -39.5t-18.5 -129.5t18.5 -129.5t62.5 -39.5t62.5 39.5t18.5 129.5t-18.5 129.5t-62.5 39.5z"/>
<glyph glyph-name="p" unicode="p" d="M311 390q-79 0 -79 -160q0 -159 79 -159t79 159q0 160 -79 160zM224 468v-73h2q42 88 145 88q44 0 78.5 -14.5t56 -38t36 -56.5t20 -67t5.5 -73t-5.5 -73t-20 -67t-36 -56.5t-56 -38t-78.5 -14.5q-47 0 -84.5 17.5t-52.5 49.5l-2 -2v-139q0 -22 7.5 -32.5t28.5 -10.5h41 v-80h-317v80h38q21 0 28.5 10.5t7.5 32.5v434q0 22 -7.5 32.5t-28.5 10.5h-39v80h233z"/>
<glyph glyph-name="q" unicode="q" d="M280 390q-79 0 -79 -160q0 -159 79 -159t79 159q0 160 -79 160zM367 395v73h233v-80h-39q-21 0 -28.5 -10.5t-7.5 -32.5v-434q0 -22 7.5 -32.5t28.5 -10.5h38v-80h-317v80h41q21 0 28.5 10.5t7.5 32.5v139l-2 2q-15 -32 -52.5 -49.5t-84.5 -17.5q-44 0 -78.5 14.5t-56 38 t-36 56.5t-20 67t-5.5 73t5.5 73t20 67t36 56.5t56 38t78.5 14.5q103 0 145 -88h2z"/>
<glyph glyph-name="r" horiz-adv-x="500" unicode="r" d="M16 388v80h236v-80h2q40 95 117 95q47 0 80.5 -32.5t33.5 -81.5q0 -34 -23 -61.5t-57 -27.5t-57 16.5t-23 49.5q0 52 52 61q-11 11 -32 11q-37 0 -61.5 -37.5t-24.5 -78.5v-179q0 -22 7.5 -32.5t28.5 -10.5h41v-80h-320v80h41q21 0 28.5 10.5t7.5 32.5v222 q0 22 -7.5 32.5t-28.5 10.5h-41z"/>
<glyph glyph-name="s" horiz-adv-x="556" unicode="s" d="M41 168h82q6 -42 50 -74q42 -29 86 -29q85 0 85 44q0 23 -32 36.5t-77.5 23.5t-91 24.5t-77.5 47.5t-32 84q0 43 20.5 75t54.5 49.5t71.5 25.5t77.5 8q81 0 155 -42l12 30h69v-150h-76q-14 39 -51 62q-33 20 -79 20q-16 0 -31 -2.5t-30.5 -11.5t-15.5 -25q0 -20 23 -32.5 t57.5 -18t74.5 -16.5t74.5 -25.5t57.5 -46t23 -77.5q0 -57 -33 -95.5t-79 -53t-102 -14.5q-111 0 -176 45l-15 -34h-75v172z"/>
<glyph glyph-name="t" horiz-adv-x="444" unicode="t" d="M153 654h99v-186h123v-80h-123v-275q0 -38 34 -38q27 0 37.5 18t10.5 55v78h80v-89q0 -76 -40 -114t-128 -38q-160 0 -160 152v251h-67v80q116 0 134 186z"/>
<glyph glyph-name="u" horiz-adv-x="667" unicode="u" d="M641 0h-230v77h-2q-34 -49 -73 -70.5t-99 -21.5q-84 0 -118 37t-34 120v203q0 22 -7.5 32.5t-28.5 10.5h-33v80h235v-295q0 -60 11.5 -79t65.5 -19q33 0 54 26t21 59v185q0 22 -7.5 32.5t-28.5 10.5h-44v80h246v-345q0 -22 7.5 -32.5t28.5 -10.5h36v-80z"/>
<glyph glyph-name="v" unicode="v" d="M21 388v80h300v-80h-36q-31 0 -31 -15q0 -11 7 -30l75 -238h2l79 235q5 17 5 29q0 19 -31 19h-28v80h227v-80h-25q-34 0 -51 -48l-120 -340h-185l-114 340q-17 48 -56 48h-18z"/>
<glyph glyph-name="w" horiz-adv-x="889" unicode="w" d="M18 388v80h285v-80h-18q-35 0 -35 -18q0 -3 2 -13l66 -245h2l73 245q2 5 2 13q0 18 -35 18h-18v80h276v-80h-23q-35 0 -35 -18q0 -3 2 -13l72 -251h2l65 237q4 13 4 27q0 18 -35 18h-14v80h214v-80h-32q-17 0 -29 -13.5t-23 -48.5l-98 -326h-178l-67 228h-2l-70 -228 h-178l-92 327q-17 61 -62 61h-21z"/>
<glyph glyph-name="x" horiz-adv-x="667" unicode="x" d="M361 468v-80h-21q-25 0 -25 -10q0 -7 11 -20l50 -55l51 45q17 15 17 28q0 12 -31 12h-10v80h241v-80h-22q-30 0 -71 -35l-122 -104l119 -133q33 -36 62 -36h41v-80h-341v80h21q28 0 28 14q0 7 -13 20l-52 54l-66 -66q-8 -10 -8 -14q0 -8 25 -8h24v-80h-246v80h27 q32 0 69 34l123 114l-122 127q-31 33 -63 33h-20v80h324z"/>
<glyph glyph-name="y" unicode="y" d="M364 468h223v-80h-19q-18 0 -30.5 -8t-17 -16t-11.5 -26l-133 -324q-47 -113 -92.5 -169.5t-118.5 -56.5q-67 0 -108.5 31.5t-41.5 97.5q0 39 23.5 62t62.5 23q31 0 53 -18t22 -48q0 -64 -53 -64q-17 0 -28 4q3 -26 57 -26q22 0 39 9.5t30.5 30.5t20.5 36t18 44l-158 356 q-10 23 -15 33.5t-14.5 19.5t-21.5 9h-32v80h303v-80h-33q-33 0 -33 -19q0 -7 6 -21l82 -185h2l71 182q6 15 6 27q0 16 -30 16h-29v80z"/>
<glyph glyph-name="z" horiz-adv-x="500" unicode="z" d="M472 380l-258 -300h90q86 0 86 84v53h80v-217h-442v97l252 291h-93q-39 0 -53.5 -16.5t-14.5 -54.5v-45h-80v196h433v-88z"/>
<glyph glyph-name="braceleft" horiz-adv-x="389" unicode="{" d="M79 -50v180q0 49 -17 75t-58 41q41 14 58 40t17 75v180q0 87 58.5 114.5t205.5 27.5v-50q-48 -5 -69.5 -33.5t-21.5 -82.5v-141q0 -57 -19 -87t-75 -43v-2q56 -13 75 -42.5t19 -86.5v-141q0 -54 21.5 -82.5t69.5 -33.5v-50q-147 0 -205.5 27.5t-58.5 114.5z"/>
<glyph glyph-name="bar" horiz-adv-x="222" unicode="|" d="M55 750h111v-1000h-111v1000z"/>
<glyph glyph-name="braceright" horiz-adv-x="389" unicode="}" d="M310 541v-180q0 -49 17 -75t58 -41q-41 -14 -58 -40t-17 -75v-180q0 -87 -58.5 -114.5t-205.5 -27.5v50q48 5 69.5 33.5t21.5 82.5v141q0 57 19 87t75 43v2q-56 13 -75 42.5t-19 86.5v141q0 54 -21.5 82.5t-69.5 33.5v50q147 0 205.5 -27.5t58.5 -114.5z"/>
<glyph glyph-name="asciitilde" horiz-adv-x="600" unicode="~" d="M495 327l36 -96q-20 -27 -33 -42t-38 -29.5t-54 -14.5q-38 0 -104 34t-113 34q-51 0 -84 -72l-36 96q45 86 125 86q41 0 115 -34q76 -34 98 -34q19 0 36.5 12t27 24.5t24.5 35.5z"/>
<glyph glyph-name="uni00A0" horiz-adv-x="305" unicode=" "/>
<glyph glyph-name="exclamdown" horiz-adv-x="333" unicode="¡" d="M118 266h97q0 -64 22.5 -190.5t22.5 -155.5q0 -132 -96 -132q-91 0 -91 132q0 29 22.5 155.5t22.5 190.5zM163 318q-34 0 -59 25t-25 59t25 58.5t59 24.5t58.5 -24.5t24.5 -58.5t-24.5 -59t-58.5 -25z"/>
<glyph glyph-name="cent" unicode="¢" d="M381 235l-77 -151q14 -13 39 -13q36 0 56.5 26t24.5 65h99q-3 -91 -60.5 -134t-151.5 -43q-27 0 -55 5l-56 -109h-68l65 126q-61 25 -95 79t-34 131q0 125 65.5 195.5t189.5 70.5q59 0 106 -22l46 90h68l-63 -124q43 -41 43 -106q0 -52 -25.5 -75t-63.5 -23q-34 0 -53 12 zM260 131l86 169q1 32 22 50.5t55 18.5q-28 34 -77 34q-55 0 -78 -46.5t-23 -108.5q0 -80 15 -117z"/>
<glyph glyph-name="sterling" unicode="£" d="M65 -15l-40 104q99 47 99 139v34h-94v74h73q-24 44 -24 98q0 64 37.5 107.5t90 61t114.5 17.5q41 0 80.5 -7.5t79.5 -23.5t64.5 -48t24.5 -76t-23.5 -66t-64.5 -22q-34 0 -57.5 18.5t-23.5 50.5q0 20 5.5 32.5t12 17t12 8t5.5 7.5q0 29 -81 29q-42 0 -72.5 -24t-30.5 -65 q0 -14 2.5 -30.5t5 -25.5t9 -30.5t8.5 -28.5h121v-74h-116q-11 -85 -89 -130l7 -8q38 18 59 24.5t56 6.5q23 0 74 -17t67 -17q28 0 38.5 19.5t10.5 42.5v22h80v-29q0 -191 -143 -191q-53 0 -126 25t-111 25q-26 0 -52.5 -8t-42.5 -16.5t-45 -25.5z"/>
<glyph glyph-name="currency" unicode="¤" d="M40 155l59 59q-47 52 -47 141q0 98 47 144l-59 59l64 64l58 -58q22 20 62.5 32.5t83.5 12.5q40 0 77.5 -12t57.5 -31l59 59l69 -69l-57 -57q43 -46 43 -142q0 -92 -45 -145l57 -57l-61 -61l-59 59q-47 -49 -142 -49q-97 0 -147 47l-58 -58zM439 356q0 58 -39.5 99.5 t-95.5 41.5t-95 -41.5t-39 -99.5t39 -99t95 -41t95.5 41t39.5 99z"/>
<glyph glyph-name="yen" unicode="¥" d="M558 396v-74h-142l-28 -54h170v-74h-171v-66q0 -40 33 -40h57v-88h-334v88h55q32 0 32 40v66h-171v74h170l-28 54h-142v74h103l-64 123q-17 33 -32.5 44.5t-47.5 11.5h-18v88h318v-88h-34q-26 0 -26 -16q0 -10 12 -34l74 -137l74 137q13 26 13 34q0 16 -26 16h-34v88h240 v-88h-18q-28 0 -41 -11.5t-31 -44.5l-65 -123h102z"/>
<glyph glyph-name="brokenbar" horiz-adv-x="222" unicode="¦" d="M55 675h111v-350h-111v350zM55 175h111v-350h-111v350z"/>
<glyph glyph-name="section" unicode="§" d="M203 212l97 -44q40 -18 72 -18t53 20t21 52q0 50 -74 79l-82 31q-36 13 -57 13q-31 0 -50 -21t-19 -49q0 -44 39 -63zM292 683q34 0 68 -5t70 -17.5t58.5 -38.5t22.5 -63q0 -33 -20.5 -52.5t-53.5 -19.5q-31 0 -51 15t-20 45q0 26 26 47q-32 21 -78 21q-110 0 -110 -78 q0 -31 35.5 -53t86 -37.5t101.5 -35t86.5 -58.5t35.5 -96q0 -102 -110 -145q89 -52 89 -142q0 -91 -67.5 -136.5t-163.5 -45.5q-50 0 -94 13t-77.5 47t-33.5 84q0 31 21 52.5t54 21.5q29 0 49.5 -15t20.5 -47q0 -47 -39 -61q34 -27 85 -27q134 0 134 86q0 39 -36.5 63.5 t-89 40t-105 34t-89 57.5t-36.5 99q0 114 113 148q-34 18 -57.5 52.5t-23.5 70.5q0 82 57 129t142 47z"/>
<glyph glyph-name="dieresis" horiz-adv-x="333" unicode="¨" d="M57 705q33 0 56 -23.5t23 -55.5q0 -33 -23 -56t-56 -23t-56 23t-23 56q0 32 23 55.5t56 23.5zM277 705q33 0 56 -23.5t23 -55.5q0 -33 -23 -56t-56 -23t-56 23t-23 56q0 32 23 55.5t56 23.5z"/>
<glyph glyph-name="copyright" horiz-adv-x="800" unicode="©" d="M400 -20q-149 0 -246.5 100t-97.5 251t97.5 251.5t246.5 100.5t246.5 -100.5t97.5 -251.5t-97.5 -251t-246.5 -100zM400 43q112 0 183 82.5t71 205.5t-71 206t-183 83t-183 -83t-71 -206t71 -205.5t183 -82.5zM544 260h23l-15 -77q-2 -12 -30 -21q-63 -21 -104 -21 q-102 0 -158.5 52.5t-56.5 149.5q0 35 10.5 67t34 62.5t70 48.5t109.5 18q49 0 101 -18q22 -7 22 -22v-70h-23q-32 84 -97 84q-48 0 -72 -43.5t-24 -120.5q0 -86 20 -134t73 -48q73 0 117 93z"/>
<glyph glyph-name="ordfeminine" horiz-adv-x="367" unicode="ª" d="M192 428v41q-8 -4 -33.5 -13t-38 -18.5t-12.5 -26.5q0 -34 37 -34q47 0 47 51zM333 433h36v-33q0 -45 -21.5 -62t-75.5 -17q-57 0 -72 43q-39 -43 -100 -43q-100 0 -100 83q0 32 20 49t48 22t56.5 8.5t48.5 14t20 32.5q0 53 -63 53q-31 0 -51 -12v-2q16 -1 28 -9t12 -23 q0 -18 -15 -28t-36 -10q-24 0 -40 12t-16 33q0 23 15.5 39.5t41 23.5t47.5 10t46 3q72 0 105 -22.5t33 -84.5v-112q0 -14 2 -19t10 -5q11 0 16 9t5 33v14z"/>
<glyph glyph-name="guillemotleft" horiz-adv-x="500" unicode="«" d="M158 403h86l-16 -37q-2 -4 -12 -25.5t-17.5 -38.5t-14.5 -37t-7 -31t7 -31t14.5 -37t17.5 -38.5t12 -25.5l16 -37h-86l-42 61q-2 3 -15 20t-22 30t-17.5 30t-8.5 28t8.5 28t17.5 30t22 30t15 20zM362 403h86l-16 -37q-2 -4 -12 -25.5t-17.5 -38.5t-14.5 -37t-7 -31t7 -31 t14.5 -37t17.5 -38.5t12 -25.5l16 -37h-86l-42 61q-2 3 -15 20t-22 30t-17.5 30t-8.5 28t8.5 28t17.5 30t22 30t15 20z"/>
<glyph glyph-name="logicalnot" horiz-adv-x="600" unicode="¬" d="M422 100v177h-356v111h467v-288h-111z"/>
<glyph glyph-name="uni00AD" horiz-adv-x="333" unicode="­" d="M297 164h-262v140h262v-140z"/>
<glyph glyph-name="registered" horiz-adv-x="800" unicode="®" d="M234 507v21h206q49 0 78.5 -25t29.5 -75q0 -32 -20 -60t-55 -38l56 -84q38 -54 56 -80v-14h-98q-13 0 -28.5 26.5t-35.5 72t-32 65.5h-19v-101q0 -22 6 -29t35 -8v-26h-179v26q29 1 35 8t6 29v255q0 22 -6 29t-35 8zM372 502v-160h22q49 0 49 83q0 41 -10.5 58.5 t-33.5 18.5h-27zM400 -20q-149 0 -246.5 100t-97.5 251t97.5 251.5t246.5 100.5t246.5 -100.5t97.5 -251.5t-97.5 -251t-246.5 -100zM400 43q112 0 183 82.5t71 205.5t-71 206t-183 83t-183 -83t-71 -206t71 -205.5t183 -82.5z"/>
<glyph glyph-name="macron" horiz-adv-x="333" unicode="¯" d="M344 581h-353v88h353v-88z"/>
<glyph glyph-name="degree" horiz-adv-x="400" unicode="°" d="M200 389q37 0 60.5 25t23.5 63t-23.5 63t-60.5 25t-60.5 -25t-23.5 -63t23.5 -63t60.5 -25zM200 620q60 0 101.5 -41.5t41.5 -101.5t-41.5 -101.5t-101.5 -41.5t-101.5 41.5t-41.5 101.5t41.5 101.5t101.5 41.5z"/>
<glyph glyph-name="plusminus" horiz-adv-x="600" unicode="±" d="M244 363v105h111v-105h178v-111h-178v-104h-111v104h-178v111h178zM66 0v111h467v-111h-467z"/>
<glyph glyph-name="twosuperior" horiz-adv-x="366" unicode="²" d="M64 248h-57v25q0 42 22.5 72t54.5 47.5t64.5 32.5t55 35.5t22.5 47.5q0 30 -23 47t-57 17q-26 0 -49.5 -12.5t-29.5 -35.5q10 5 25 5q18 0 30.5 -13.5t12.5 -29.5q0 -48 -61 -48q-29 0 -48 17.5t-19 45.5q0 59 52.5 89t121.5 30q68 0 116 -29.5t48 -89.5 q0 -40 -21.5 -65.5t-55 -37t-68.5 -20t-69 -23t-50 -37.5l1 -2q35 23 83 23q22 0 54 -6q43 -8 52 -8q33 0 33 49h55v-29q0 -106 -114 -106q-34 0 -79 17q-49 17 -65 17q-34 0 -37 -25z"/>
<glyph glyph-name="threesuperior" horiz-adv-x="366" unicode="³" d="M158 414v48q77 0 77 52q0 30 -22 44t-56 14q-43 0 -66 -23q54 0 54 -40q0 -20 -17.5 -31.5t-41.5 -11.5q-25 0 -41 15.5t-16 38.5q0 52 47.5 76t109.5 24q28 0 54.5 -4t54 -14t44 -30t16.5 -48q0 -65 -87 -79v-2q49 -11 74 -31t25 -62q0 -62 -47 -86.5t-130 -24.5 q-170 0 -170 99q0 61 65 61q23 0 38.5 -13t15.5 -34q0 -43 -54 -43q8 -9 29 -15.5t36 -6.5q97 0 97 67q0 36 -23 48t-66 12z"/>
<glyph glyph-name="acute" horiz-adv-x="333" unicode="´" d="M153 543h-72l85 114q2 2 14 18.5t15.5 21t14.5 16t18.5 15.5t20 8t25.5 4q23 0 40.5 -15t17.5 -38q0 -19 -10 -34t-19.5 -21.5t-31.5 -19.5z"/>
<glyph glyph-name="mu" horiz-adv-x="667" unicode="µ" d="M641 80v-80h-230v77h-2q-31 -46 -68 -68t-90 -23v-198h-235v80h32q37 0 37 48v429q0 22 -7.5 32.5t-28.5 10.5h-33v80h235v-295q0 -60 11.5 -79t65.5 -19q33 0 54 26t21 59v185q0 22 -7.5 32.5t-28.5 10.5h-44v80h246v-345q0 -22 7.5 -32.5t28.5 -10.5h36z"/>
<glyph glyph-name="paragraph" horiz-adv-x="620" unicode="¶" d="M568 663v-33q-27 0 -47 -16.5t-20 -53.5v-713h-114v783h-55v-783h-114v427q-66 0 -106.5 54.5t-40.5 139.5t40.5 140t106.5 55h350z"/>
<glyph glyph-name="periodcentered" horiz-adv-x="305" unicode="·" d="M231 234q0 -33 -23.5 -56t-55.5 -23q-33 0 -55.5 23t-22.5 56q0 32 22.5 55t55.5 23q32 0 55.5 -23t23.5 -55z"/>
<glyph glyph-name="cedilla" horiz-adv-x="333" unicode="¸" d="M42 -205l17 44q39 -13 71 -13q42 0 42 36q0 15 -9.5 25.5t-24.5 10.5q-11 0 -29 -6l-16 9l46 99h46l-28 -62q18 5 42 5q35 0 61 -18.5t26 -53.5q0 -28 -15 -47.5t-39.5 -29t-48.5 -13.5t-50 -4q-45 0 -91 18z"/>
<glyph glyph-name="onesuperior" horiz-adv-x="366" unicode="¹" d="M155 611h84v-284q0 -29 29 -29h40v-50h-253v50h43q29 0 29 29v186h-70v50h16q60 0 82 48z"/>
<glyph glyph-name="ordmasculine" horiz-adv-x="334" unicode="º" d="M168 620q75 0 121 -40t46 -110t-46 -109.5t-121 -39.5t-121.5 39.5t-46.5 109.5t46.5 110t121.5 40zM168 572q-29 0 -41 -24t-12 -78q0 -53 12 -77t41 -24t40.5 23.5t11.5 77.5t-11.5 78t-40.5 24z"/>
<glyph glyph-name="guillemotright" horiz-adv-x="500" unicode="»" d="M342 65h-86l16 37q2 4 12 25.5t17.5 38.5t14.5 37t7 31t-7 31t-14.5 37t-17.5 38.5t-12 25.5l-16 37h86l42 -61q2 -3 15 -20t22 -30t17.5 -30t8.5 -28t-8.5 -28t-17.5 -30t-22 -30t-15 -20zM138 65h-86l16 37q2 4 12 25.5t17.5 38.5t14.5 37t7 31t-7 31t-14.5 37 t-17.5 38.5t-12 25.5l-16 37h86l42 -61q2 -3 15 -20t22 -30t17.5 -30t8.5 -28t-8.5 -28t-17.5 -30t-22 -30t-15 -20z"/>
<glyph glyph-name="onequarter" horiz-adv-x="916" unicode="¼" d="M528 110v57l203 196h102v-203h63v-50h-63v-31q0 -29 28 -29h35v-50h-247v50h43q28 0 28 29v31h-192zM602 160h116v115zM225 -15l437 635h60l-435 -635h-62zM180 611h84v-284q0 -29 29 -29h40v-50h-253v50h43q29 0 29 29v186h-70v50h16q60 0 82 48z"/>
<glyph glyph-name="onehalf" horiz-adv-x="916" unicode="½" d="M199 -15l437 635h60l-435 -635h-62zM180 611h84v-284q0 -29 29 -29h40v-50h-253v50h43q29 0 29 29v186h-70v50h16q60 0 82 48zM585 0h-57v25q0 42 22.5 72t55 47.5t64.5 32.5t54.5 35.5t22.5 47.5q0 30 -23 47t-57 17q-26 0 -49.5 -12.5t-29.5 -35.5q10 5 25 5 q18 0 30.5 -13.5t12.5 -29.5q0 -48 -61 -48q-29 0 -48 17.5t-19 45.5q0 59 52.5 89t121.5 30q68 0 116 -29.5t48 -89.5q0 -40 -21.5 -65.5t-55 -37t-68.5 -20t-69 -23t-50 -37.5l1 -2q35 23 83 23q22 0 54 -6q43 -8 52 -8q33 0 33 49h55v-29q0 -106 -114 -106q-34 0 -79 17 q-49 17 -65 17q-34 0 -37 -25z"/>
<glyph glyph-name="threequarters" horiz-adv-x="916" unicode="¾" d="M237 -15l437 635h60l-435 -635h-62zM165 414v48q77 0 77 52q0 30 -22 44t-56 14q-43 0 -66 -23q54 0 54 -40q0 -20 -17.5 -31.5t-41.5 -11.5q-25 0 -41 15.5t-16 38.5q0 52 47.5 76t109.5 24q28 0 54.5 -4t54 -14t44 -30t16.5 -48q0 -65 -87 -79v-2q49 -11 74 -31t25 -62 q0 -62 -47 -86.5t-130 -24.5q-170 0 -170 99q0 61 65 61q23 0 38.5 -13t15.5 -34q0 -43 -54 -43q8 -9 29 -15.5t36 -6.5q97 0 97 67q0 36 -23 48t-66 12zM523 110v57l203 196h102v-203h63v-50h-63v-31q0 -29 28 -29h35v-50h-247v50h43q28 0 28 29v31h-192zM597 160h116v115z "/>
<glyph glyph-name="questiondown" horiz-adv-x="556" unicode="¿" d="M255 264h99q-2 -49 -9 -71q-10 -31 -41 -67.5t-54 -73.5t-23 -80q0 -42 32 -65.5t75 -23.5q42 0 71.5 21.5t36.5 61.5q-22 -11 -44 -11q-31 0 -50.5 21.5t-19.5 52.5q0 39 24 59.5t63 20.5q50 0 76.5 -35t26.5 -87q0 -90 -68.5 -144.5t-160.5 -54.5q-39 0 -79 10.5 t-77.5 31.5t-61 58t-23.5 85q0 88 98 160q8 6 29.5 20t31 22t22.5 22t19 30t7 37zM305 318q-34 0 -59 25t-25 59t25 58.5t59 24.5t58.5 -24.5t24.5 -58.5t-24.5 -59t-58.5 -25z"/>
<glyph glyph-name="Agrave" horiz-adv-x="778" unicode="À" d="M282 663h200l167 -500q15 -45 29 -60t40 -15h34v-88h-365v88h30q55 0 55 15q0 17 -5 36l-21 72h-204l-12 -40q-15 -48 -15 -64q0 -19 62 -19h29v-88h-294v88h34q26 0 40 15t29 60zM342 514l-71 -215h145l-72 215h-2zM464 716h-72l-118 69q-22 13 -31.5 19.5t-19.5 21.5 t-10 34q0 23 17.5 38t40.5 15q13 0 25.5 -4t20 -8t18.5 -15.5t14.5 -16t15.5 -21t14 -18.5z"/>
<glyph glyph-name="Aacute" horiz-adv-x="778" unicode="Á" d="M282 663h200l167 -500q15 -45 29 -60t40 -15h34v-88h-365v88h30q55 0 55 15q0 17 -5 36l-21 72h-204l-12 -40q-15 -48 -15 -64q0 -19 62 -19h29v-88h-294v88h34q26 0 40 15t29 60zM342 514l-71 -215h145l-72 215h-2zM366 716h-72l85 114q2 2 14 18.5t15.5 21t14.5 16 t18.5 15.5t20 8t25.5 4q23 0 40.5 -15t17.5 -38q0 -19 -10 -34t-19.5 -21.5t-31.5 -19.5z"/>
<glyph glyph-name="Acircumflex" horiz-adv-x="778" unicode="Â" d="M282 663h200l167 -500q15 -45 29 -60t40 -15h34v-88h-365v88h30q55 0 55 15q0 17 -5 36l-21 72h-204l-12 -40q-15 -48 -15 -64q0 -19 62 -19h29v-88h-294v88h34q26 0 40 15t29 60zM342 514l-71 -215h145l-72 215h-2zM380 808l-107 -92h-78l122 180h125l123 -180h-79z"/>
<glyph glyph-name="Atilde" horiz-adv-x="778" unicode="Ã" d="M282 663h200l167 -500q15 -45 29 -60t40 -15h34v-88h-365v88h30q55 0 55 15q0 17 -5 36l-21 72h-204l-12 -40q-15 -48 -15 -64q0 -19 62 -19h29v-88h-294v88h34q26 0 40 15t29 60zM342 514l-71 -215h145l-72 215h-2zM524 877h55q-12 -59 -42.5 -102.5t-83.5 -43.5 q-43 0 -99 27q-60 26 -73 26q-37 0 -47 -48h-52q6 63 40 104t93 41q28 0 86 -26t75 -26q36 0 48 48z"/>
<glyph glyph-name="Adieresis" horiz-adv-x="778" unicode="Ä" d="M282 663h200l167 -500q15 -45 29 -60t40 -15h34v-88h-365v88h30q55 0 55 15q0 17 -5 36l-21 72h-204l-12 -40q-15 -48 -15 -64q0 -19 62 -19h29v-88h-294v88h34q26 0 40 15t29 60zM342 514l-71 -215h145l-72 215h-2zM270 878q33 0 56 -23.5t23 -55.5q0 -33 -23 -56 t-56 -23t-56 23t-23 56q0 32 23 55.5t56 23.5zM490 878q33 0 56 -23.5t23 -55.5q0 -33 -23 -56t-56 -23t-56 23t-23 56q0 32 23 55.5t56 23.5z"/>
<glyph glyph-name="Aring" horiz-adv-x="778" unicode="Å" d="M282 663h200l167 -500q15 -45 29 -60t40 -15h34v-88h-365v88h30q55 0 55 15q0 17 -5 36l-21 72h-204l-12 -40q-15 -48 -15 -64q0 -19 62 -19h29v-88h-294v88h34q26 0 40 15t29 60zM342 514l-71 -215h145l-72 215h-2zM379 940q47 0 80 -33t33 -79t-33 -79t-80 -33t-80 33 t-33 79t33 79t80 33zM379 880q-22 0 -37.5 -15.5t-15.5 -36.5q0 -22 15.5 -37t37.5 -15q21 0 37 15.5t16 36.5t-16 36.5t-37 15.5z"/>
<glyph glyph-name="AE" horiz-adv-x="1000" unicode="Æ" d="M395 575l-116 -240h141v240h-25zM420 247h-183l-63 -136q-3 -7 -3 -13q0 -10 21 -10h52v-88h-253v88q24 0 45.5 15t32.5 37l193 390q15 32 15 37q0 8 -32 8h-47v88h766v-254h-93q0 70 -14 107t-37 48t-63 11h-160v-191h22q42 0 60.5 16t18.5 52v39h83v-302h-83v39 q0 34 -17 51t-62 17h-22v-208h117q67 0 98 12.5t45 50.5t14 120h93v-271h-632v88h49q39 0 39 40v119z"/>
<glyph glyph-name="Ccedilla" horiz-adv-x="722" unicode="Ç" d="M583 253h93q-2 -126 -68.5 -194t-189.5 -76l-20 -45q18 5 42 5q35 0 61 -18.5t26 -53.5q0 -28 -15 -47.5t-39.5 -29t-48.5 -13.5t-50 -4q-45 0 -91 18l17 44q39 -13 71 -13q42 0 42 36q0 15 -9.5 25.5t-24.5 10.5q-11 0 -29 -6l-16 9l37 80q-157 2 -251 92t-94 259 q0 157 96 254t244 97q43 0 106.5 -19t93.5 -48l20 56h90v-272h-93q0 82 -44 136t-125 54q-171 0 -171 -258q0 -128 40 -193.5t139 -65.5q75 0 118 53t43 127z"/>
<glyph glyph-name="Egrave" horiz-adv-x="722" unicode="È" d="M118 128v407q0 40 -39 40h-62v88h665v-254h-93q0 103 -40.5 134.5t-143.5 31.5h-99v-191h31q43 0 61 19t18 66v22h83v-302h-83v24q0 32 -12.5 57.5t-37.5 25.5h-60v-208h122q43 0 70 6t49.5 25t32 56t9.5 96h93v-271h-664v88h61q39 0 39 40zM455 716h-72l-118 69 q-22 13 -31.5 19.5t-19.5 21.5t-10 34q0 23 17.5 38t40.5 15q13 0 25.5 -4t20 -8t18.5 -15.5t14.5 -16t15.5 -21t14 -18.5z"/>
<glyph glyph-name="Eacute" horiz-adv-x="722" unicode="É" d="M118 128v407q0 40 -39 40h-62v88h665v-254h-93q0 103 -40.5 134.5t-143.5 31.5h-99v-191h31q43 0 61 19t18 66v22h83v-302h-83v24q0 32 -12.5 57.5t-37.5 25.5h-60v-208h122q43 0 70 6t49.5 25t32 56t9.5 96h93v-271h-664v88h61q39 0 39 40zM357 716h-72l85 114 q2 2 14 18.5t15.5 21t14.5 16t18.5 15.5t20 8t25.5 4q23 0 40.5 -15t17.5 -38q0 -19 -10 -34t-19.5 -21.5t-31.5 -19.5z"/>
<glyph glyph-name="Ecircumflex" horiz-adv-x="722" unicode="Ê" d="M118 128v407q0 40 -39 40h-62v88h665v-254h-93q0 103 -40.5 134.5t-143.5 31.5h-99v-191h31q43 0 61 19t18 66v22h83v-302h-83v24q0 32 -12.5 57.5t-37.5 25.5h-60v-208h122q43 0 70 6t49.5 25t32 56t9.5 96h93v-271h-664v88h61q39 0 39 40zM371 808l-107 -92h-78 l122 180h125l123 -180h-79z"/>
<glyph glyph-name="Edieresis" horiz-adv-x="722" unicode="Ë" d="M118 128v407q0 40 -39 40h-62v88h665v-254h-93q0 103 -40.5 134.5t-143.5 31.5h-99v-191h31q43 0 61 19t18 66v22h83v-302h-83v24q0 32 -12.5 57.5t-37.5 25.5h-60v-208h122q43 0 70 6t49.5 25t32 56t9.5 96h93v-271h-664v88h61q39 0 39 40zM261 878q33 0 56 -23.5 t23 -55.5q0 -33 -23 -56t-56 -23t-56 23t-23 56q0 32 23 55.5t56 23.5zM481 878q33 0 56 -23.5t23 -55.5q0 -33 -23 -56t-56 -23t-56 23t-23 56q0 32 23 55.5t56 23.5z"/>
<glyph glyph-name="Igrave" horiz-adv-x="444" unicode="Ì" d="M417 663v-88h-62q-21 0 -30 -7.5t-9 -32.5v-407q0 -40 39 -40h61v-88h-388v88h61q39 0 39 40v421q0 26 -39 26h-62v88h390zM298 716h-72l-118 69q-22 13 -31.5 19.5t-19.5 21.5t-10 34q0 23 17.5 38t40.5 15q13 0 25.5 -4t20 -8t18.5 -15.5t14.5 -16t15.5 -21t14 -18.5z "/>
<glyph glyph-name="Iacute" horiz-adv-x="444" unicode="Í" d="M417 663v-88h-62q-21 0 -30 -7.5t-9 -32.5v-407q0 -40 39 -40h61v-88h-388v88h61q39 0 39 40v421q0 26 -39 26h-62v88h390zM200 716h-72l85 114q2 2 14 18.5t15.5 21t14.5 16t18.5 15.5t20 8t25.5 4q23 0 40.5 -15t17.5 -38q0 -19 -10 -34t-19.5 -21.5t-31.5 -19.5z"/>
<glyph glyph-name="Icircumflex" horiz-adv-x="444" unicode="Î" d="M417 663v-88h-62q-21 0 -30 -7.5t-9 -32.5v-407q0 -40 39 -40h61v-88h-388v88h61q39 0 39 40v421q0 26 -39 26h-62v88h390zM214 808l-107 -92h-78l122 180h125l123 -180h-79z"/>
<glyph glyph-name="Idieresis" horiz-adv-x="444" unicode="Ï" d="M417 663v-88h-62q-21 0 -30 -7.5t-9 -32.5v-407q0 -40 39 -40h61v-88h-388v88h61q39 0 39 40v421q0 26 -39 26h-62v88h390zM104 878q33 0 56 -23.5t23 -55.5q0 -33 -23 -56t-56 -23t-56 23t-23 56q0 32 23 55.5t56 23.5zM324 878q33 0 56 -23.5t23 -55.5q0 -33 -23 -56 t-56 -23t-56 23t-23 56q0 32 23 55.5t56 23.5z"/>
<glyph glyph-name="Eth" horiz-adv-x="778" unicode="Ð" d="M11 300v88h99v147q0 40 -39 40h-60v88h363q177 0 275.5 -82.5t98.5 -254.5q0 -166 -98.5 -246t-281.5 -80h-356v88h59q39 0 39 40v172h-99zM416 388v-88h-118v-212h46q104 0 148 50.5t44 193.5t-44 193t-148 50h-46v-187h118z"/>
<glyph glyph-name="Ntilde" horiz-adv-x="833" unicode="Ñ" d="M343 663l259 -457h2v329q0 40 -39 40h-61v88h308v-88h-60q-39 0 -39 -40v-535h-202l-278 493h-2v-365q0 -40 39 -40h61v-88h-309v88h61q39 0 39 40v407q0 40 -39 40h-62v88h322zM561 877h55q-12 -59 -42.5 -102.5t-83.5 -43.5q-43 0 -99 27q-60 26 -73 26q-37 0 -47 -48 h-52q6 63 40 104t93 41q28 0 86 -26t75 -26q36 0 48 48z"/>
<glyph glyph-name="Ograve" horiz-adv-x="778" unicode="Ò" d="M389 590q-75 0 -110.5 -63.5t-35.5 -195.5t35.5 -195t110.5 -63t110.5 63t35.5 195t-35.5 195.5t-110.5 63.5zM389 683q166 0 264.5 -95t98.5 -257t-98.5 -256.5t-264.5 -94.5t-264.5 94.5t-98.5 256.5t98.5 257t264.5 95zM474 716h-72l-118 69q-22 13 -31.5 19.5 t-19.5 21.5t-10 34q0 23 17.5 38t40.5 15q13 0 25.5 -4t20 -8t18.5 -15.5t14.5 -16t15.5 -21t14 -18.5z"/>
<glyph glyph-name="Oacute" horiz-adv-x="778" unicode="Ó" d="M389 590q-75 0 -110.5 -63.5t-35.5 -195.5t35.5 -195t110.5 -63t110.5 63t35.5 195t-35.5 195.5t-110.5 63.5zM389 683q166 0 264.5 -95t98.5 -257t-98.5 -256.5t-264.5 -94.5t-264.5 94.5t-98.5 256.5t98.5 257t264.5 95zM376 716h-72l85 114q2 2 14 18.5t15.5 21 t14.5 16t18.5 15.5t20 8t25.5 4q23 0 40.5 -15t17.5 -38q0 -19 -10 -34t-19.5 -21.5t-31.5 -19.5z"/>
<glyph glyph-name="Ocircumflex" horiz-adv-x="778" unicode="Ô" d="M389 590q-75 0 -110.5 -63.5t-35.5 -195.5t35.5 -195t110.5 -63t110.5 63t35.5 195t-35.5 195.5t-110.5 63.5zM389 683q166 0 264.5 -95t98.5 -257t-98.5 -256.5t-264.5 -94.5t-264.5 94.5t-98.5 256.5t98.5 257t264.5 95zM390 808l-107 -92h-78l122 180h125l123 -180 h-79z"/>
<glyph glyph-name="Otilde" horiz-adv-x="778" unicode="Õ" d="M389 590q-75 0 -110.5 -63.5t-35.5 -195.5t35.5 -195t110.5 -63t110.5 63t35.5 195t-35.5 195.5t-110.5 63.5zM389 683q166 0 264.5 -95t98.5 -257t-98.5 -256.5t-264.5 -94.5t-264.5 94.5t-98.5 256.5t98.5 257t264.5 95zM534 877h55q-12 -59 -42.5 -102.5t-83.5 -43.5 q-43 0 -99 27q-60 26 -73 26q-37 0 -47 -48h-52q6 63 40 104t93 41q28 0 86 -26t75 -26q36 0 48 48z"/>
<glyph glyph-name="Odieresis" horiz-adv-x="778" unicode="Ö" d="M389 590q-75 0 -110.5 -63.5t-35.5 -195.5t35.5 -195t110.5 -63t110.5 63t35.5 195t-35.5 195.5t-110.5 63.5zM389 683q166 0 264.5 -95t98.5 -257t-98.5 -256.5t-264.5 -94.5t-264.5 94.5t-98.5 256.5t98.5 257t264.5 95zM280 878q33 0 56 -23.5t23 -55.5q0 -33 -23 -56 t-56 -23t-56 23t-23 56q0 32 23 55.5t56 23.5zM500 878q33 0 56 -23.5t23 -55.5q0 -33 -23 -56t-56 -23t-56 23t-23 56q0 32 23 55.5t56 23.5z"/>
<glyph glyph-name="multiply" horiz-adv-x="600" unicode="×" d="M225 234l-152 150l75 76l152 -150l151 149l76 -75l-152 -150l152 -150l-75 -75l-152 150l-152 -150l-75 75z"/>
<glyph glyph-name="Oslash" horiz-adv-x="778" unicode="Ø" d="M248 243l261 261q-33 86 -120 86q-75 0 -110.5 -63.5t-35.5 -195.5q0 -45 5 -88zM156 48l-80 -81l-54 50l81 81q-77 91 -77 233q0 162 98.5 257t264.5 95q137 0 231 -68l77 77l52 -51l-75 -75q78 -92 78 -235q0 -162 -98.5 -256.5t-264.5 -94.5q-142 0 -233 68zM529 421 l-261 -261q34 -87 121 -87q75 0 110.5 63t35.5 195q0 51 -6 90z"/>
<glyph glyph-name="Ugrave" horiz-adv-x="778" unicode="Ù" d="M15 575v88h390v-88h-62q-39 0 -39 -40v-353q0 -50 29 -79.5t87 -29.5q83 0 109.5 38t26.5 137v287q0 40 -39 40h-59v88h305v-88h-59q-39 0 -39 -40v-321q0 -234 -265 -234q-139 0 -211.5 51.5t-72.5 172.5v331q0 40 -39 40h-62zM479 716h-72l-118 69q-22 13 -31.5 19.5 t-19.5 21.5t-10 34q0 23 17.5 38t40.5 15q13 0 25.5 -4t20 -8t18.5 -15.5t14.5 -16t15.5 -21t14 -18.5z"/>
<glyph glyph-name="Uacute" horiz-adv-x="778" unicode="Ú" d="M15 575v88h390v-88h-62q-39 0 -39 -40v-353q0 -50 29 -79.5t87 -29.5q83 0 109.5 38t26.5 137v287q0 40 -39 40h-59v88h305v-88h-59q-39 0 -39 -40v-321q0 -234 -265 -234q-139 0 -211.5 51.5t-72.5 172.5v331q0 40 -39 40h-62zM381 716h-72l85 114q2 2 14 18.5t15.5 21 t14.5 16t18.5 15.5t20 8t25.5 4q23 0 40.5 -15t17.5 -38q0 -19 -10 -34t-19.5 -21.5t-31.5 -19.5z"/>
<glyph glyph-name="Ucircumflex" horiz-adv-x="778" unicode="Û" d="M15 575v88h390v-88h-62q-39 0 -39 -40v-353q0 -50 29 -79.5t87 -29.5q83 0 109.5 38t26.5 137v287q0 40 -39 40h-59v88h305v-88h-59q-39 0 -39 -40v-321q0 -234 -265 -234q-139 0 -211.5 51.5t-72.5 172.5v331q0 40 -39 40h-62zM395 808l-107 -92h-78l122 180h125 l123 -180h-79z"/>
<glyph glyph-name="Udieresis" horiz-adv-x="778" unicode="Ü" d="M15 575v88h390v-88h-62q-39 0 -39 -40v-353q0 -50 29 -79.5t87 -29.5q83 0 109.5 38t26.5 137v287q0 40 -39 40h-59v88h305v-88h-59q-39 0 -39 -40v-321q0 -234 -265 -234q-139 0 -211.5 51.5t-72.5 172.5v331q0 40 -39 40h-62zM285 878q33 0 56 -23.5t23 -55.5 q0 -33 -23 -56t-56 -23t-56 23t-23 56q0 32 23 55.5t56 23.5zM505 878q33 0 56 -23.5t23 -55.5q0 -33 -23 -56t-56 -23t-56 23t-23 56q0 32 23 55.5t56 23.5z"/>
<glyph glyph-name="Yacute" horiz-adv-x="778" unicode="Ý" d="M23 663h381v-88h-41q-31 0 -31 -16q0 -10 15 -34l88 -137l89 137q15 24 15 34q0 16 -31 16h-41v88h288v-88h-21q-51 0 -69 -27l-178 -281v-139q0 -40 39 -40h68v-88h-400v88h66q39 0 39 40v139l-158 252q-21 33 -39.5 44.5t-57.5 11.5h-21v88zM399 716h-72l85 114 q2 2 14 18.5t15.5 21t14.5 16t18.5 15.5t20 8t25.5 4q23 0 40.5 -15t17.5 -38q0 -19 -10 -34t-19.5 -21.5t-31.5 -19.5z"/>
<glyph glyph-name="Thorn" horiz-adv-x="722" unicode="Þ" d="M306 450v-201h54q149 0 149 100q0 101 -149 101h-54zM400 161h-94v-161h-288v88h61q39 0 39 40v407q0 40 -39 40h-62v88h289v-124h94q153 0 225 -44t72 -145t-72 -145t-225 -44z"/>
<glyph glyph-name="germandbls" unicode="ß" d="M83 123v348q0 212 243 212q40 0 77 -7t73 -22.5t58 -46t22 -73.5q0 -109 -138 -127v-2q173 -32 173 -212q0 -88 -51.5 -148t-122.5 -60q-131 0 -131 117v66h73v-60q0 -14 1 -21t7 -14.5t19 -7.5q17 0 22.5 32t5.5 114q0 78 -24.5 112.5t-87.5 34.5v80q48 0 68 19t20 66 q0 40 -17 59.5t-56 19.5q-68 0 -68 -82v-520h-230v80h28q21 0 28.5 10.5t7.5 32.5z"/>
<glyph glyph-name="agrave" unicode="à" d="M324 163v68q-13 -7 -51.5 -21.5t-58 -30.5t-19.5 -44q0 -56 57 -56q72 0 72 84zM542 171h55v-55q0 -75 -32.5 -103t-116.5 -28q-38 0 -69 18.5t-42 52.5q-59 -71 -154 -71q-154 0 -154 139q0 44 22 72t55 37.5t71.5 17t71.5 12.5t55 22.5t22 47.5q0 88 -97 88 q-49 0 -79 -19v-2q26 -3 44.5 -17t18.5 -38q0 -31 -23 -47t-56 -16q-37 0 -62 20t-25 54q0 39 24 66t63 39.5t73.5 17t71.5 4.5q110 0 160.5 -37t50.5 -141v-186q0 -23 3.5 -31.5t15.5 -8.5q18 0 25.5 14.5t7.5 54.5v23zM362 543h-72l-118 69q-22 13 -31.5 19.5t-19.5 21.5 t-10 34q0 23 17.5 38t40.5 15q13 0 25.5 -4t20 -8t18.5 -15.5t14.5 -16t15.5 -21t14 -18.5z"/>
<glyph glyph-name="aacute" unicode="á" d="M324 163v68q-13 -7 -51.5 -21.5t-58 -30.5t-19.5 -44q0 -56 57 -56q72 0 72 84zM542 171h55v-55q0 -75 -32.5 -103t-116.5 -28q-38 0 -69 18.5t-42 52.5q-59 -71 -154 -71q-154 0 -154 139q0 44 22 72t55 37.5t71.5 17t71.5 12.5t55 22.5t22 47.5q0 88 -97 88 q-49 0 -79 -19v-2q26 -3 44.5 -17t18.5 -38q0 -31 -23 -47t-56 -16q-37 0 -62 20t-25 54q0 39 24 66t63 39.5t73.5 17t71.5 4.5q110 0 160.5 -37t50.5 -141v-186q0 -23 3.5 -31.5t15.5 -8.5q18 0 25.5 14.5t7.5 54.5v23zM264 543h-72l85 114q2 2 14 18.5t15.5 21t14.5 16 t18.5 15.5t20 8t25.5 4q23 0 40.5 -15t17.5 -38q0 -19 -10 -34t-19.5 -21.5t-31.5 -19.5z"/>
<glyph glyph-name="acircumflex" unicode="â" d="M324 163v68q-13 -7 -51.5 -21.5t-58 -30.5t-19.5 -44q0 -56 57 -56q72 0 72 84zM542 171h55v-55q0 -75 -32.5 -103t-116.5 -28q-38 0 -69 18.5t-42 52.5q-59 -71 -154 -71q-154 0 -154 139q0 44 22 72t55 37.5t71.5 17t71.5 12.5t55 22.5t22 47.5q0 88 -97 88 q-49 0 -79 -19v-2q26 -3 44.5 -17t18.5 -38q0 -31 -23 -47t-56 -16q-37 0 -62 20t-25 54q0 39 24 66t63 39.5t73.5 17t71.5 4.5q110 0 160.5 -37t50.5 -141v-186q0 -23 3.5 -31.5t15.5 -8.5q18 0 25.5 14.5t7.5 54.5v23zM278 635l-107 -92h-78l122 180h125l123 -180h-79z "/>
<glyph glyph-name="atilde" unicode="ã" d="M324 163v68q-13 -7 -51.5 -21.5t-58 -30.5t-19.5 -44q0 -56 57 -56q72 0 72 84zM542 171h55v-55q0 -75 -32.5 -103t-116.5 -28q-38 0 -69 18.5t-42 52.5q-59 -71 -154 -71q-154 0 -154 139q0 44 22 72t55 37.5t71.5 17t71.5 12.5t55 22.5t22 47.5q0 88 -97 88 q-49 0 -79 -19v-2q26 -3 44.5 -17t18.5 -38q0 -31 -23 -47t-56 -16q-37 0 -62 20t-25 54q0 39 24 66t63 39.5t73.5 17t71.5 4.5q110 0 160.5 -37t50.5 -141v-186q0 -23 3.5 -31.5t15.5 -8.5q18 0 25.5 14.5t7.5 54.5v23zM422 704h55q-12 -59 -42.5 -102.5t-83.5 -43.5 q-43 0 -99 27q-60 26 -73 26q-37 0 -47 -48h-52q6 63 40 104t93 41q28 0 86 -26t75 -26q36 0 48 48z"/>
<glyph glyph-name="adieresis" unicode="ä" d="M324 163v68q-13 -7 -51.5 -21.5t-58 -30.5t-19.5 -44q0 -56 57 -56q72 0 72 84zM542 171h55v-55q0 -75 -32.5 -103t-116.5 -28q-38 0 -69 18.5t-42 52.5q-59 -71 -154 -71q-154 0 -154 139q0 44 22 72t55 37.5t71.5 17t71.5 12.5t55 22.5t22 47.5q0 88 -97 88 q-49 0 -79 -19v-2q26 -3 44.5 -17t18.5 -38q0 -31 -23 -47t-56 -16q-37 0 -62 20t-25 54q0 39 24 66t63 39.5t73.5 17t71.5 4.5q110 0 160.5 -37t50.5 -141v-186q0 -23 3.5 -31.5t15.5 -8.5q18 0 25.5 14.5t7.5 54.5v23zM168 705q33 0 56 -23.5t23 -55.5q0 -33 -23 -56 t-56 -23t-56 23t-23 56q0 32 23 55.5t56 23.5zM388 705q33 0 56 -23.5t23 -55.5q0 -33 -23 -56t-56 -23t-56 23t-23 56q0 32 23 55.5t56 23.5z"/>
<glyph glyph-name="aring" unicode="å" d="M324 163v68q-13 -7 -51.5 -21.5t-58 -30.5t-19.5 -44q0 -56 57 -56q72 0 72 84zM542 171h55v-55q0 -75 -32.5 -103t-116.5 -28q-38 0 -69 18.5t-42 52.5q-59 -71 -154 -71q-154 0 -154 139q0 44 22 72t55 37.5t71.5 17t71.5 12.5t55 22.5t22 47.5q0 88 -97 88 q-49 0 -79 -19v-2q26 -3 44.5 -17t18.5 -38q0 -31 -23 -47t-56 -16q-37 0 -62 20t-25 54q0 39 24 66t63 39.5t73.5 17t71.5 4.5q110 0 160.5 -37t50.5 -141v-186q0 -23 3.5 -31.5t15.5 -8.5q18 0 25.5 14.5t7.5 54.5v23zM277 767q47 0 80 -33t33 -79t-33 -79t-80 -33t-80 33 t-33 79t33 79t80 33zM277 707q-22 0 -37.5 -15.5t-15.5 -36.5q0 -22 15.5 -37t37.5 -15q21 0 37 15.5t16 36.5t-16 36.5t-37 15.5z"/>
<glyph glyph-name="ae" horiz-adv-x="833" unicode="æ" d="M318 163v68l-51 -23q-78 -35 -78 -77q0 -26 16 -39t41 -13q72 0 72 84zM482 291h151v26q0 39 -20 62.5t-55 23.5q-36 0 -56 -23.5t-20 -62.5v-26zM809 211h-327q0 -66 26.5 -99t69.5 -33q88 0 101 78h116q-11 -85 -76 -128.5t-151 -43.5q-161 0 -203 87 q-43 -45 -86.5 -66t-101.5 -21q-154 0 -154 140q0 53 31.5 82t77 37.5t90.5 14.5t76.5 24.5t31.5 57.5q0 35 -32 57.5t-75 22.5q-50 0 -79 -17v-2q26 -4 44.5 -18t18.5 -38q0 -31 -23 -47t-56 -16q-36 0 -61.5 19.5t-25.5 54.5q0 40 23.5 67t63 39t73.5 16.5t72 4.5 q73 0 150 -43q22 19 59 30.5t66 11.5q261 0 261 -272z"/>
<glyph glyph-name="ccedilla" horiz-adv-x="500" unicode="ç" d="M378 162h99q-3 -87 -55.5 -130.5t-136.5 -45.5l-21 -48q18 5 42 5q35 0 61 -18.5t26 -53.5q0 -28 -15 -47.5t-39.5 -29t-48.5 -13.5t-50 -4q-45 0 -91 18l17 44q39 -13 71 -13q42 0 42 36q0 15 -9.5 25.5t-24.5 10.5q-11 0 -29 -6l-16 9l40 86q-102 8 -160 71t-58 176 q0 119 72.5 184t175.5 65q87 0 147 -42t60 -120q0 -41 -24 -69.5t-65 -28.5q-39 0 -63.5 18t-24.5 55q0 34 21.5 53.5t55.5 19.5q-28 34 -80 34q-41 0 -69.5 -42.5t-28.5 -123.5q0 -87 23 -126.5t75 -39.5q36 0 56.5 26t24.5 65z"/>
<glyph glyph-name="egrave" horiz-adv-x="556" unicode="è" d="M531 211h-330q0 -140 100 -140q31 0 63 23t38 63h116q-11 -84 -81.5 -128t-159.5 -44q-126 0 -189.5 65.5t-63.5 183.5q0 114 71.5 181.5t181.5 67.5q119 0 186.5 -76t67.5 -196zM203 291h151v26q0 39 -20 62.5t-55 23.5q-36 0 -56 -23.5t-20 -62.5v-26zM370 543h-72 l-118 69q-22 13 -31.5 19.5t-19.5 21.5t-10 34q0 23 17.5 38t40.5 15q13 0 25.5 -4t20 -8t18.5 -15.5t14.5 -16t15.5 -21t14 -18.5z"/>
<glyph glyph-name="eacute" horiz-adv-x="556" unicode="é" d="M531 211h-330q0 -140 100 -140q31 0 63 23t38 63h116q-11 -84 -81.5 -128t-159.5 -44q-126 0 -189.5 65.5t-63.5 183.5q0 114 71.5 181.5t181.5 67.5q119 0 186.5 -76t67.5 -196zM203 291h151v26q0 39 -20 62.5t-55 23.5q-36 0 -56 -23.5t-20 -62.5v-26zM272 543h-72 l85 114q2 2 14 18.5t15.5 21t14.5 16t18.5 15.5t20 8t25.5 4q23 0 40.5 -15t17.5 -38q0 -19 -10 -34t-19.5 -21.5t-31.5 -19.5z"/>
<glyph glyph-name="ecircumflex" horiz-adv-x="556" unicode="ê" d="M531 211h-330q0 -140 100 -140q31 0 63 23t38 63h116q-11 -84 -81.5 -128t-159.5 -44q-126 0 -189.5 65.5t-63.5 183.5q0 114 71.5 181.5t181.5 67.5q119 0 186.5 -76t67.5 -196zM203 291h151v26q0 39 -20 62.5t-55 23.5q-36 0 -56 -23.5t-20 -62.5v-26zM286 635 l-107 -92h-78l122 180h125l123 -180h-79z"/>
<glyph glyph-name="edieresis" horiz-adv-x="556" unicode="ë" d="M531 211h-330q0 -140 100 -140q31 0 63 23t38 63h116q-11 -84 -81.5 -128t-159.5 -44q-126 0 -189.5 65.5t-63.5 183.5q0 114 71.5 181.5t181.5 67.5q119 0 186.5 -76t67.5 -196zM203 291h151v26q0 39 -20 62.5t-55 23.5q-36 0 -56 -23.5t-20 -62.5v-26zM176 705 q33 0 56 -23.5t23 -55.5q0 -33 -23 -56t-56 -23t-56 23t-23 56q0 32 23 55.5t56 23.5zM396 705q33 0 56 -23.5t23 -55.5q0 -33 -23 -56t-56 -23t-56 23t-23 56q0 32 23 55.5t56 23.5z"/>
<glyph glyph-name="igrave" horiz-adv-x="389" unicode="ì" d="M278 468v-345q0 -22 7.5 -32.5t28.5 -10.5h41v-80h-322v80h43q21 0 28.5 10.5t7.5 32.5v222q0 22 -7.5 32.5t-28.5 10.5h-46v80h248zM279 543h-72l-118 69q-22 13 -31.5 19.5t-19.5 21.5t-10 34q0 23 17.5 38t40.5 15q13 0 25.5 -4t20 -8t18.5 -15.5t14.5 -16t15.5 -21 t14 -18.5z"/>
<glyph glyph-name="iacute" horiz-adv-x="389" unicode="í" d="M278 468v-345q0 -22 7.5 -32.5t28.5 -10.5h41v-80h-322v80h43q21 0 28.5 10.5t7.5 32.5v222q0 22 -7.5 32.5t-28.5 10.5h-46v80h248zM181 543h-72l85 114q2 2 14 18.5t15.5 21t14.5 16t18.5 15.5t20 8t25.5 4q23 0 40.5 -15t17.5 -38q0 -19 -10 -34t-19.5 -21.5 t-31.5 -19.5z"/>
<glyph glyph-name="icircumflex" horiz-adv-x="389" unicode="î" d="M278 468v-345q0 -22 7.5 -32.5t28.5 -10.5h41v-80h-322v80h43q21 0 28.5 10.5t7.5 32.5v222q0 22 -7.5 32.5t-28.5 10.5h-46v80h248zM195 635l-107 -92h-78l122 180h125l123 -180h-79z"/>
<glyph glyph-name="idieresis" horiz-adv-x="389" unicode="ï" d="M278 468v-345q0 -22 7.5 -32.5t28.5 -10.5h41v-80h-322v80h43q21 0 28.5 10.5t7.5 32.5v222q0 22 -7.5 32.5t-28.5 10.5h-46v80h248zM85 705q33 0 56 -23.5t23 -55.5q0 -33 -23 -56t-56 -23t-56 23t-23 56q0 32 23 55.5t56 23.5zM305 705q33 0 56 -23.5t23 -55.5 q0 -33 -23 -56t-56 -23t-56 23t-23 56q0 32 23 55.5t56 23.5z"/>
<glyph glyph-name="eth" horiz-adv-x="556" unicode="ð" d="M278 403q-44 0 -62.5 -39.5t-18.5 -129.5t18.5 -129.5t62.5 -39.5t62.5 39.5t18.5 129.5t-18.5 129.5t-62.5 39.5zM104 621l92 45q44 -21 80 -42l85 40l52 -51l-73 -33q94 -72 145 -162.5t51 -183.5q0 -117 -71.5 -183t-186.5 -66t-186.5 66t-71.5 183t71.5 183t186.5 66 q13 0 20 -1q-27 36 -56 54l-88 -40l-48 48l74 35q-27 16 -76 42z"/>
<glyph glyph-name="ntilde" horiz-adv-x="667" unicode="ñ" d="M16 468h235v-77h2q34 49 73 70.5t99 21.5q82 0 117 -43.5t35 -126.5v-190q0 -22 7.5 -32.5t28.5 -10.5h38v-80h-297v80h21q21 0 28.5 10.5t7.5 32.5v172q0 50 -15 74t-62 24q-33 0 -54 -26t-21 -59v-185q0 -22 7.5 -32.5t28.5 -10.5h24v-80h-302v80h40q21 0 28.5 10.5 t7.5 32.5v222q0 22 -7.5 32.5t-28.5 10.5h-41v80zM464 704h55q-12 -59 -42.5 -102.5t-83.5 -43.5q-43 0 -99 27q-60 26 -73 26q-37 0 -47 -48h-52q6 63 40 104t93 41q28 0 86 -26t75 -26q36 0 48 48z"/>
<glyph glyph-name="ograve" horiz-adv-x="556" unicode="ò" d="M278 483q115 0 186.5 -66t71.5 -183t-71.5 -183t-186.5 -66t-186.5 66t-71.5 183t71.5 183t186.5 66zM278 403q-44 0 -62.5 -39.5t-18.5 -129.5t18.5 -129.5t62.5 -39.5t62.5 39.5t18.5 129.5t-18.5 129.5t-62.5 39.5zM363 543h-72l-118 69q-22 13 -31.5 19.5t-19.5 21.5 t-10 34q0 23 17.5 38t40.5 15q13 0 25.5 -4t20 -8t18.5 -15.5t14.5 -16t15.5 -21t14 -18.5z"/>
<glyph glyph-name="oacute" horiz-adv-x="556" unicode="ó" d="M278 483q115 0 186.5 -66t71.5 -183t-71.5 -183t-186.5 -66t-186.5 66t-71.5 183t71.5 183t186.5 66zM278 403q-44 0 -62.5 -39.5t-18.5 -129.5t18.5 -129.5t62.5 -39.5t62.5 39.5t18.5 129.5t-18.5 129.5t-62.5 39.5zM265 543h-72l85 114q2 2 14 18.5t15.5 21t14.5 16 t18.5 15.5t20 8t25.5 4q23 0 40.5 -15t17.5 -38q0 -19 -10 -34t-19.5 -21.5t-31.5 -19.5z"/>
<glyph glyph-name="ocircumflex" horiz-adv-x="556" unicode="ô" d="M278 483q115 0 186.5 -66t71.5 -183t-71.5 -183t-186.5 -66t-186.5 66t-71.5 183t71.5 183t186.5 66zM278 403q-44 0 -62.5 -39.5t-18.5 -129.5t18.5 -129.5t62.5 -39.5t62.5 39.5t18.5 129.5t-18.5 129.5t-62.5 39.5zM279 635l-107 -92h-78l122 180h125l123 -180h-79z "/>
<glyph glyph-name="otilde" horiz-adv-x="556" unicode="õ" d="M278 483q115 0 186.5 -66t71.5 -183t-71.5 -183t-186.5 -66t-186.5 66t-71.5 183t71.5 183t186.5 66zM278 403q-44 0 -62.5 -39.5t-18.5 -129.5t18.5 -129.5t62.5 -39.5t62.5 39.5t18.5 129.5t-18.5 129.5t-62.5 39.5zM423 704h55q-12 -59 -42.5 -102.5t-83.5 -43.5 q-43 0 -99 27q-60 26 -73 26q-37 0 -47 -48h-52q6 63 40 104t93 41q28 0 86 -26t75 -26q36 0 48 48z"/>
<glyph glyph-name="odieresis" horiz-adv-x="556" unicode="ö" d="M278 483q115 0 186.5 -66t71.5 -183t-71.5 -183t-186.5 -66t-186.5 66t-71.5 183t71.5 183t186.5 66zM278 403q-44 0 -62.5 -39.5t-18.5 -129.5t18.5 -129.5t62.5 -39.5t62.5 39.5t18.5 129.5t-18.5 129.5t-62.5 39.5zM169 705q33 0 56 -23.5t23 -55.5q0 -33 -23 -56 t-56 -23t-56 23t-23 56q0 32 23 55.5t56 23.5zM389 705q33 0 56 -23.5t23 -55.5q0 -33 -23 -56t-56 -23t-56 23t-23 56q0 32 23 55.5t56 23.5z"/>
<glyph glyph-name="divide" horiz-adv-x="600" unicode="÷" d="M533 178h-467v111h467v-111zM300 508q34 0 59 -25t25 -59t-25 -58.5t-59 -24.5t-58.5 24.5t-24.5 58.5t24.5 59t58.5 25zM300 126q34 0 59 -25t25 -59t-25 -58.5t-59 -24.5t-58.5 24.5t-24.5 58.5t24.5 59t58.5 25z"/>
<glyph glyph-name="oslash" horiz-adv-x="556" unicode="ø" d="M199 204l145 149q-17 50 -66 50q-44 0 -62.5 -39.5t-18.5 -129.5q0 -23 2 -30zM357 266l-146 -149q17 -52 67 -52q44 0 62.5 39.5t18.5 129.5q0 24 -2 32zM57 -40l-51 46l65 67q-51 65 -51 161q0 117 71.5 183t186.5 66q91 0 153 -41l63 65l51 -48l-61 -63 q52 -65 52 -162q0 -117 -71.5 -183t-186.5 -66q-92 0 -155 42z"/>
<glyph glyph-name="ugrave" horiz-adv-x="667" unicode="ù" d="M641 0h-230v77h-2q-34 -49 -73 -70.5t-99 -21.5q-84 0 -118 37t-34 120v203q0 22 -7.5 32.5t-28.5 10.5h-33v80h235v-295q0 -60 11.5 -79t65.5 -19q33 0 54 26t21 59v185q0 22 -7.5 32.5t-28.5 10.5h-44v80h246v-345q0 -22 7.5 -32.5t28.5 -10.5h36v-80zM390 543h-72 l-118 69q-22 13 -31.5 19.5t-19.5 21.5t-10 34q0 23 17.5 38t40.5 15q13 0 25.5 -4t20 -8t18.5 -15.5t14.5 -16t15.5 -21t14 -18.5z"/>
<glyph glyph-name="uacute" horiz-adv-x="667" unicode="ú" d="M641 0h-230v77h-2q-34 -49 -73 -70.5t-99 -21.5q-84 0 -118 37t-34 120v203q0 22 -7.5 32.5t-28.5 10.5h-33v80h235v-295q0 -60 11.5 -79t65.5 -19q33 0 54 26t21 59v185q0 22 -7.5 32.5t-28.5 10.5h-44v80h246v-345q0 -22 7.5 -32.5t28.5 -10.5h36v-80zM292 543h-72 l85 114q2 2 14 18.5t15.5 21t14.5 16t18.5 15.5t20 8t25.5 4q23 0 40.5 -15t17.5 -38q0 -19 -10 -34t-19.5 -21.5t-31.5 -19.5z"/>
<glyph glyph-name="ucircumflex" horiz-adv-x="667" unicode="û" d="M641 0h-230v77h-2q-34 -49 -73 -70.5t-99 -21.5q-84 0 -118 37t-34 120v203q0 22 -7.5 32.5t-28.5 10.5h-33v80h235v-295q0 -60 11.5 -79t65.5 -19q33 0 54 26t21 59v185q0 22 -7.5 32.5t-28.5 10.5h-44v80h246v-345q0 -22 7.5 -32.5t28.5 -10.5h36v-80zM306 635 l-107 -92h-78l122 180h125l123 -180h-79z"/>
<glyph glyph-name="udieresis" horiz-adv-x="667" unicode="ü" d="M641 0h-230v77h-2q-34 -49 -73 -70.5t-99 -21.5q-84 0 -118 37t-34 120v203q0 22 -7.5 32.5t-28.5 10.5h-33v80h235v-295q0 -60 11.5 -79t65.5 -19q33 0 54 26t21 59v185q0 22 -7.5 32.5t-28.5 10.5h-44v80h246v-345q0 -22 7.5 -32.5t28.5 -10.5h36v-80zM196 705 q33 0 56 -23.5t23 -55.5q0 -33 -23 -56t-56 -23t-56 23t-23 56q0 32 23 55.5t56 23.5zM416 705q33 0 56 -23.5t23 -55.5q0 -33 -23 -56t-56 -23t-56 23t-23 56q0 32 23 55.5t56 23.5z"/>
<glyph glyph-name="yacute" unicode="ý" d="M364 468h223v-80h-19q-18 0 -30.5 -8t-17 -16t-11.5 -26l-133 -324q-47 -113 -92.5 -169.5t-118.5 -56.5q-67 0 -108.5 31.5t-41.5 97.5q0 39 23.5 62t62.5 23q31 0 53 -18t22 -48q0 -64 -53 -64q-17 0 -28 4q3 -26 57 -26q22 0 39 9.5t30.5 30.5t20.5 36t18 44l-158 356 q-10 23 -15 33.5t-14.5 19.5t-21.5 9h-32v80h303v-80h-33q-33 0 -33 -19q0 -7 6 -21l82 -185h2l71 182q6 15 6 27q0 16 -30 16h-29v80zM292 543h-72l85 114q2 2 14 18.5t15.5 21t14.5 16t18.5 15.5t20 8t25.5 4q23 0 40.5 -15t17.5 -38q0 -19 -10 -34t-19.5 -21.5 t-31.5 -19.5z"/>
<glyph glyph-name="thorn" unicode="þ" d="M311 390q-79 0 -79 -160q0 -159 79 -159t79 159q0 160 -79 160zM224 663v-268h2q42 88 145 88q44 0 78.5 -14.5t56 -38t36 -56.5t20 -67t5.5 -73t-5.5 -73t-20 -67t-36 -56.5t-56 -38t-78.5 -14.5q-47 0 -84.5 17.5t-52.5 49.5l-2 -2v-139q0 -22 7.5 -32.5t28.5 -10.5h41 v-80h-317v80h38q21 0 28.5 10.5t7.5 32.5v629q0 22 -7.5 32.5t-28.5 10.5h-39v80h233z"/>
</font>
</defs>
</svg>
